<svg width="43" height="44" viewBox="0 0 43 44" fill="none" xmlns="http://www.w3.org/2000/svg">
<path fill-rule="evenodd" clip-rule="evenodd" d="M36.3564 6.52201C32.3563 2.52201 27.394 0.509277 21.4191 0.509277C15.4696 0.509277 10.482 2.52201 6.50722 6.52201C2.50707 10.5475 0.532318 15.5411 0.532318 21.5538C0.532318 27.5156 2.53239 32.5093 6.50722 36.5602C10.5074 40.5857 15.4696 42.5984 21.4191 42.5984C27.3687 42.5984 32.3563 40.5857 36.3564 36.5857C40.3565 32.5602 42.3313 27.5666 42.3313 21.5538C42.3313 15.5411 40.3312 10.522 36.3564 6.52201V6.52201Z" fill="#F9A024"/>
<path fill-rule="evenodd" clip-rule="evenodd" d="M21.4185 43.1083C15.3423 43.1083 10.2029 41.0191 6.1268 36.9172C2.05071 32.8153 0 27.6433 0 21.5541C0 15.4395 2.07602 10.2675 6.1268 6.1656C10.2029 2.06369 15.3423 0 21.4185 0C27.4947 0 32.6341 2.08917 36.7102 6.1656C40.7863 10.2675 42.837 15.4395 42.837 21.5541C42.837 27.6688 40.761 32.8407 36.7102 36.9427C32.6341 41.0191 27.4947 43.1083 21.4185 43.1083V43.1083ZM21.4186 1.01917C15.6462 1.01917 10.7346 3.00643 6.86108 6.87904C2.98752 10.7771 1.03809 15.6943 1.03809 21.5287C1.03809 27.3376 3.01284 32.2548 6.86108 36.1529C10.7346 40.051 15.6209 42.0382 21.4186 42.0382C27.2163 42.0382 32.1025 40.051 35.9761 36.1784C39.8496 32.2803 41.7991 27.3631 41.7991 21.5287C41.7991 15.6943 39.8243 10.7771 35.9761 6.87904C32.1025 2.98095 27.2163 1.01917 21.4186 1.01917V1.01917Z" fill="#ED017F"/>
<path fill-rule="evenodd" clip-rule="evenodd" d="M10.5827 14.4206C11.3676 13.7581 12.2537 13.4524 13.317 13.4269C14.3803 13.4014 15.469 13.6053 16.5323 14.0384C17.5956 14.446 18.659 15.083 19.6716 15.7963L20.1527 15.4142C19.5197 14.1913 18.5324 13.1976 17.3678 12.4333C16.1779 11.669 14.7348 11.2358 13.2664 11.2358C12.5575 11.2358 11.7473 11.3632 11.0131 11.6944C10.2789 12.0256 9.64597 12.5352 9.16494 13.1212C8.68391 13.7072 8.3801 14.3951 8.17756 15.083C8.00034 15.7709 7.89907 16.4588 7.97502 17.1721L8.58264 17.2486C9.13962 16.1021 9.79787 15.083 10.5827 14.4206V14.4206Z" fill="#ED017F"/>
<path fill-rule="evenodd" clip-rule="evenodd" d="M24.1531 12.4586C25.0898 11.7962 26.1025 11.3376 27.1405 11.1337C28.2038 10.9044 29.1153 11.0063 30.0267 11.4649C30.9381 11.9235 31.7989 12.7898 32.5837 13.7579L33.166 13.5541C33.0901 12.8407 32.8369 12.2038 32.5078 11.5669C32.1533 10.9554 31.6976 10.3439 31.09 9.88533C30.4824 9.40125 29.7482 9.07004 28.9634 8.91717C28.1785 8.76431 27.3684 8.81526 26.6848 8.99361C25.2417 9.32482 23.9505 10.0891 22.9631 11.1083C22.0011 12.1274 21.2669 13.3248 20.9124 14.6497L21.4694 14.9044C22.3302 13.9363 23.2163 13.0955 24.1531 12.4586V12.4586Z" fill="#ED017F"/>
<path fill-rule="evenodd" clip-rule="evenodd" d="M33.773 26.5732C33.3426 27.6433 32.6844 28.6369 31.9502 29.4522C31.5704 29.8853 31.1653 30.2675 30.7349 30.5987C30.3045 30.9554 29.8488 31.2866 29.3931 31.5669C27.4943 32.7134 25.317 33.3758 23.0638 33.7325C20.8612 34.0892 18.5826 34.0637 16.38 33.5541C15.2913 33.2994 14.2027 32.9427 13.1647 32.4331C12.1267 31.949 11.114 31.3121 10.2279 30.5732L9.89873 30.8535C10.5823 31.9236 11.519 32.7643 12.5317 33.5287C13.5444 34.2675 14.6837 34.8535 15.8989 35.2866C18.3041 36.1529 20.9118 36.3057 23.4182 35.9236C25.874 35.5414 28.3804 34.7006 30.4311 33.121C32.4818 31.5669 34.0262 29.2229 34.2034 26.6752L33.773 26.5732V26.5732Z" fill="#ED017F"/>
<path fill-rule="evenodd" clip-rule="evenodd" d="M20.9876 19.7961L21.7978 27.2865L22.2281 27.2356L21.418 19.7451L20.9876 19.7961Z" fill="#ED017F"/>
</svg>
