<svg width="52" height="52" viewBox="0 0 52 52" fill="none" xmlns="http://www.w3.org/2000/svg">
<path d="M26 30.3333C28.3932 30.3333 30.3333 28.3932 30.3333 26C30.3333 23.6067 28.3932 21.6666 26 21.6666C23.6068 21.6666 21.6667 23.6067 21.6667 26C21.6667 28.3932 23.6068 30.3333 26 30.3333Z" stroke="#F9A024" stroke-width="3.25" stroke-linecap="round" stroke-linejoin="round"/>
<path d="M8.66667 39.0021C5.84778 35.2541 4.32659 30.6898 4.33334 26C4.33334 14.0335 14.0335 4.33331 26 4.33331C37.9665 4.33331 47.6667 14.0335 47.6667 26C47.6667 30.8793 46.0547 35.3816 43.3333 39.0021" stroke="#F9A024" stroke-width="3.25" stroke-linecap="round" stroke-linejoin="round"/>
<path d="M16.3107 34.6666C14.6376 32.7961 13.5416 30.4814 13.1551 28.0017C12.7686 25.5221 13.1081 22.9836 14.1326 20.6926C15.1571 18.4017 16.8228 16.4562 18.9286 15.0911C21.0345 13.726 23.4904 12.9996 26 12.9996C28.5096 12.9996 30.9655 13.726 33.0714 15.0911C35.1772 16.4562 36.8429 18.4017 37.8674 20.6926C38.8919 22.9836 39.2314 25.5221 38.8449 28.0017C38.4584 30.4814 37.3625 32.7961 35.6893 34.6666M26 30.3333V41.1666M28.7343 41.1666H23.2657C22.6785 41.1666 22.3838 41.1666 22.1043 41.2056C21.5367 41.2858 20.9993 41.4873 20.5335 41.7906C20.2324 42.0044 19.9477 42.2405 19.682 42.497C18.317 43.7211 17.6345 44.3343 17.4547 44.824C17.082 45.8423 17.5933 46.9495 18.6593 47.4326C19.1728 47.6666 20.1392 47.6666 22.0718 47.6666H29.9303C31.8587 47.6666 32.825 47.6666 33.3407 47.4326C34.4067 46.9495 34.918 45.8423 34.5453 44.824C34.3655 44.3343 33.683 43.7211 32.318 42.497C32.0518 42.2404 31.7672 42.0036 31.4665 41.7885C30.9913 41.4827 30.4553 41.2838 29.8957 41.2056C29.614 41.1666 29.3215 41.1666 28.7343 41.1666Z" stroke="#F9A024" stroke-width="3.25" stroke-linecap="round" stroke-linejoin="round"/>
</svg>
