<svg width="128" height="128" viewBox="0 0 128 128" fill="none" xmlns="http://www.w3.org/2000/svg">
<g clip-path="url(#clip0_409_4761)">
<path d="M0.000610352 16H128.001V112.005H96.0006V71.456L95.254 70.752C93.2623 68.9258 91.1095 67.2836 88.8219 65.8454C81.4021 61.1343 72.7897 58.6435 64.0006 58.6667C53.2273 58.6667 44.8753 62.2454 39.1793 65.84C36.6017 67.4631 34.1964 69.3449 32.0006 71.456V112H0.000610352V16ZM32.0006 57.792C32.4771 57.472 32.9731 57.1503 33.4886 56.8267C42.6117 51.04 53.1971 47.9778 64.0006 48C75.4091 47.9731 86.5608 51.3856 96.0006 57.792V26.672H92.6673L64.0006 26.6667H32.0006V57.792ZM106.667 26.672V101.339H117.334V26.672H106.667ZM21.3339 26.6667H10.6673V101.333H21.3339V26.6667Z" fill="black"/>
</g>
<defs>
<clipPath id="clip0_409_4761">
<rect width="128" height="128" fill="white"/>
</clipPath>
</defs>
</svg>
