<svg width="100" height="100" viewBox="0 0 100 100" fill="none" xmlns="http://www.w3.org/2000/svg">
<path d="M34.375 81.25V93.75M15.625 6.25H53.125C54.7826 6.25 56.3723 6.90848 57.5444 8.08058C58.7165 9.25268 59.375 10.8424 59.375 12.5V92.9688C59.375 93.176 59.2927 93.3747 59.1462 93.5212C58.9997 93.6677 58.801 93.75 58.5938 93.75H9.375V12.5C9.375 10.8424 10.0335 9.25268 11.2056 8.08058C12.3777 6.90848 13.9674 6.25 15.625 6.25ZM62.5 37.5H84.375C86.0326 37.5 87.6223 38.1585 88.7944 39.3306C89.9665 40.5027 90.625 42.0924 90.625 43.75V93.75H59.375V40.625C59.375 39.7962 59.7042 39.0013 60.2903 38.4153C60.8763 37.8292 61.6712 37.5 62.5 37.5Z" stroke="#560029" stroke-width="6.25" stroke-linecap="round" stroke-linejoin="round"/>
<path d="M19.1562 84.3496C18.509 84.4342 17.8516 84.3141 17.2761 84.006C16.7007 83.698 16.2361 83.2175 15.9477 82.6319C15.6592 82.0464 15.5614 81.3853 15.6678 80.7413C15.7743 80.0973 16.0797 79.5028 16.5413 79.0413C17.0028 78.5797 17.5973 78.2743 18.2413 78.1678C18.8853 78.0614 19.5464 78.1592 20.1319 78.4477C20.7175 78.7361 21.198 79.2006 21.506 79.7761C21.8141 80.3516 21.9342 81.009 21.8496 81.6562C21.7603 82.3392 21.4478 82.9736 20.9607 83.4607C20.4736 83.9478 19.8392 84.2603 19.1562 84.3496ZM19.1562 68.7246C18.509 68.8092 17.8516 68.6891 17.2761 68.381C16.7007 68.073 16.2361 67.5925 15.9477 67.0069C15.6592 66.4214 15.5614 65.7603 15.6678 65.1163C15.7743 64.4723 16.0797 63.8778 16.5413 63.4163C17.0028 62.9547 17.5973 62.6493 18.2413 62.5428C18.8853 62.4364 19.5464 62.5342 20.1319 62.8227C20.7175 63.1111 21.198 63.5756 21.506 64.1511C21.8141 64.7266 21.9342 65.384 21.8496 66.0312C21.7603 66.7142 21.4478 67.3486 20.9607 67.8357C20.4736 68.3228 19.8392 68.6353 19.1562 68.7246ZM19.1562 53.0996C18.509 53.1842 17.8516 53.0641 17.2761 52.756C16.7007 52.448 16.2361 51.9675 15.9477 51.3819C15.6592 50.7964 15.5614 50.1353 15.6678 49.4913C15.7743 48.8473 16.0797 48.2528 16.5413 47.7913C17.0028 47.3297 17.5973 47.0243 18.2413 46.9178C18.8853 46.8114 19.5464 46.9092 20.1319 47.1977C20.7175 47.4861 21.198 47.9506 21.506 48.5261C21.8141 49.1016 21.9342 49.759 21.8496 50.4062C21.7603 51.0892 21.4478 51.7236 20.9607 52.2107C20.4736 52.6978 19.8392 53.0103 19.1562 53.0996ZM19.1562 37.4746C18.509 37.5592 17.8516 37.4391 17.2761 37.131C16.7007 36.823 16.2361 36.3425 15.9477 35.7569C15.6592 35.1714 15.5614 34.5103 15.6678 33.8663C15.7743 33.2223 16.0797 32.6278 16.5413 32.1663C17.0028 31.7047 17.5973 31.3993 18.2413 31.2928C18.8853 31.1864 19.5464 31.2842 20.1319 31.5727C20.7175 31.8611 21.198 32.3257 21.506 32.9011C21.8141 33.4766 21.9342 34.134 21.8496 34.7812C21.7603 35.4642 21.4478 36.0986 20.9607 36.5857C20.4736 37.0728 19.8392 37.3853 19.1562 37.4746ZM19.1562 21.8496C18.509 21.9342 17.8516 21.8141 17.2761 21.506C16.7007 21.198 16.2361 20.7175 15.9477 20.1319C15.6592 19.5464 15.5614 18.8853 15.6678 18.2413C15.7743 17.5973 16.0797 17.0028 16.5413 16.5413C17.0028 16.0797 17.5973 15.7743 18.2413 15.6678C18.8853 15.5614 19.5464 15.6592 20.1319 15.9477C20.7175 16.2361 21.198 16.7007 21.506 17.2761C21.8141 17.8516 21.9342 18.509 21.8496 19.1562C21.7603 19.8392 21.4478 20.4736 20.9607 20.9607C20.4736 21.4478 19.8392 21.7603 19.1562 21.8496ZM34.7812 68.7246C34.134 68.8092 33.4766 68.6891 32.9011 68.381C32.3257 68.073 31.8611 67.5925 31.5727 67.0069C31.2842 66.4214 31.1864 65.7603 31.2928 65.1163C31.3993 64.4723 31.7047 63.8778 32.1663 63.4163C32.6278 62.9547 33.2223 62.6493 33.8663 62.5428C34.5103 62.4364 35.1714 62.5342 35.7569 62.8227C36.3425 63.1111 36.823 63.5756 37.131 64.1511C37.4391 64.7266 37.5592 65.384 37.4746 66.0312C37.3853 66.7142 37.0728 67.3486 36.5857 67.8357C36.0986 68.3228 35.4643 68.6353 34.7812 68.7246ZM34.7812 53.0996C34.134 53.1842 33.4766 53.0641 32.9011 52.756C32.3257 52.448 31.8611 51.9675 31.5727 51.3819C31.2842 50.7964 31.1864 50.1353 31.2928 49.4913C31.3993 48.8473 31.7047 48.2528 32.1663 47.7913C32.6278 47.3297 33.2223 47.0243 33.8663 46.9178C34.5103 46.8114 35.1714 46.9092 35.7569 47.1977C36.3425 47.4861 36.823 47.9506 37.131 48.5261C37.4391 49.1016 37.5592 49.759 37.4746 50.4062C37.3853 51.0892 37.0728 51.7236 36.5857 52.2107C36.0986 52.6978 35.4643 53.0103 34.7812 53.0996ZM34.7812 37.4746C34.134 37.5592 33.4766 37.4391 32.9011 37.131C32.3257 36.823 31.8611 36.3425 31.5727 35.7569C31.2842 35.1714 31.1864 34.5103 31.2928 33.8663C31.3993 33.2223 31.7047 32.6278 32.1663 32.1663C32.6278 31.7047 33.2223 31.3993 33.8663 31.2928C34.5103 31.1864 35.1714 31.2842 35.7569 31.5727C36.3425 31.8611 36.823 32.3257 37.131 32.9011C37.4391 33.4766 37.5592 34.134 37.4746 34.7812C37.3853 35.4642 37.0728 36.0986 36.5857 36.5857C36.0986 37.0728 35.4643 37.3853 34.7812 37.4746ZM34.7812 21.8496C34.134 21.9342 33.4766 21.8141 32.9011 21.506C32.3257 21.198 31.8611 20.7175 31.5727 20.1319C31.2842 19.5464 31.1864 18.8853 31.2928 18.2413C31.3993 17.5973 31.7047 17.0028 32.1663 16.5413C32.6278 16.0797 33.2223 15.7743 33.8663 15.6678C34.5103 15.5614 35.1714 15.6592 35.7569 15.9477C36.3425 16.2361 36.823 16.7007 37.131 17.2761C37.4391 17.8516 37.5592 18.509 37.4746 19.1562C37.3853 19.8392 37.0728 20.4736 36.5857 20.9607C36.0986 21.4478 35.4643 21.7603 34.7812 21.8496ZM50.4062 84.3496C49.759 84.4342 49.1016 84.3141 48.5261 84.006C47.9507 83.698 47.4861 83.2175 47.1977 82.6319C46.9092 82.0464 46.8114 81.3853 46.9178 80.7413C47.0243 80.0973 47.3297 79.5028 47.7913 79.0413C48.2528 78.5797 48.8473 78.2743 49.4913 78.1678C50.1353 78.0614 50.7964 78.1592 51.3819 78.4477C51.9675 78.7361 52.448 79.2006 52.756 79.7761C53.0641 80.3516 53.1842 81.009 53.0996 81.6562C53.0103 82.3392 52.6978 82.9736 52.2107 83.4607C51.7236 83.9478 51.0892 84.2603 50.4062 84.3496ZM50.4062 68.7246C49.759 68.8092 49.1016 68.6891 48.5261 68.381C47.9507 68.073 47.4861 67.5925 47.1977 67.0069C46.9092 66.4214 46.8114 65.7603 46.9178 65.1163C47.0243 64.4723 47.3297 63.8778 47.7913 63.4163C48.2528 62.9547 48.8473 62.6493 49.4913 62.5428C50.1353 62.4364 50.7964 62.5342 51.3819 62.8227C51.9675 63.1111 52.448 63.5756 52.756 64.1511C53.0641 64.7266 53.1842 65.384 53.0996 66.0312C53.0103 66.7142 52.6978 67.3486 52.2107 67.8357C51.7236 68.3228 51.0892 68.6353 50.4062 68.7246ZM50.4062 53.0996C49.759 53.1842 49.1016 53.0641 48.5261 52.756C47.9507 52.448 47.4861 51.9675 47.1977 51.3819C46.9092 50.7964 46.8114 50.1353 46.9178 49.4913C47.0243 48.8473 47.3297 48.2528 47.7913 47.7913C48.2528 47.3297 48.8473 47.0243 49.4913 46.9178C50.1353 46.8114 50.7964 46.9092 51.3819 47.1977C51.9675 47.4861 52.448 47.9506 52.756 48.5261C53.0641 49.1016 53.1842 49.759 53.0996 50.4062C53.0103 51.0892 52.6978 51.7236 52.2107 52.2107C51.7236 52.6978 51.0892 53.0103 50.4062 53.0996Z" fill="#560029"/>
<path d="M52.2139 36.5873C53.4305 35.3707 53.4255 33.3933 52.2028 32.1706C50.9802 30.9479 49.0028 30.943 47.7862 32.1596C46.5696 33.3761 46.5745 35.3535 47.7972 36.5762C49.0199 37.7989 50.9973 37.8038 52.2139 36.5873Z" fill="#560029"/>
<path d="M50.4062 21.8496C49.759 21.9342 49.1016 21.8141 48.5261 21.506C47.9506 21.198 47.4861 20.7175 47.1977 20.1319C46.9092 19.5464 46.8114 18.8853 46.9178 18.2413C47.0243 17.5973 47.3297 17.0028 47.7913 16.5413C48.2528 16.0797 48.8473 15.7743 49.4913 15.6678C50.1353 15.5614 50.7964 15.6592 51.3819 15.9477C51.9675 16.2361 52.448 16.7007 52.756 17.2761C53.0641 17.8516 53.1842 18.509 53.0996 19.1562C53.0103 19.8392 52.6978 20.4736 52.2107 20.9607C51.7236 21.4478 51.0892 21.7603 50.4062 21.8496ZM78.125 78.125C77.5069 78.125 76.9027 78.3083 76.3888 78.6516C75.8749 78.995 75.4744 79.4831 75.2379 80.0541C75.0013 80.6251 74.9394 81.2535 75.06 81.8596C75.1806 82.4658 75.4782 83.0227 75.9153 83.4597C76.3523 83.8967 76.9091 84.1944 77.5153 84.3149C78.1215 84.4355 78.7498 84.3736 79.3209 84.1371C79.8919 83.9006 80.3799 83.5 80.7233 82.9861C81.0667 82.4722 81.25 81.868 81.25 81.25C81.25 80.4212 80.9207 79.6263 80.3347 79.0403C79.7486 78.4542 78.9538 78.125 78.125 78.125ZM78.125 62.5C77.5069 62.5 76.9027 62.6833 76.3888 63.0266C75.8749 63.37 75.4744 63.8581 75.2379 64.4291C75.0013 65.0001 74.9394 65.6285 75.06 66.2346C75.1806 66.8408 75.4782 67.3977 75.9153 67.8347C76.3523 68.2717 76.9091 68.5694 77.5153 68.6899C78.1215 68.8105 78.7498 68.7486 79.3209 68.5121C79.8919 68.2756 80.3799 67.875 80.7233 67.3611C81.0667 66.8472 81.25 66.2431 81.25 65.625C81.25 64.7962 80.9207 64.0013 80.3347 63.4153C79.7486 62.8292 78.9538 62.5 78.125 62.5ZM78.125 46.875C77.5069 46.875 76.9027 47.0583 76.3888 47.4016C75.8749 47.745 75.4744 48.2331 75.2379 48.8041C75.0013 49.3751 74.9394 50.0035 75.06 50.6096C75.1806 51.2158 75.4782 51.7727 75.9153 52.2097C76.3523 52.6467 76.9091 52.9444 77.5153 53.0649C78.1215 53.1855 78.7498 53.1236 79.3209 52.8871C79.8919 52.6506 80.3799 52.25 80.7233 51.7361C81.0667 51.2222 81.25 50.618 81.25 50C81.25 49.1712 80.9207 48.3763 80.3347 47.7903C79.7486 47.2042 78.9538 46.875 78.125 46.875ZM65.625 78.125C65.0069 78.125 64.4027 78.3083 63.8888 78.6516C63.3749 78.995 62.9744 79.4831 62.7379 80.0541C62.5013 80.6251 62.4394 81.2535 62.56 81.8596C62.6806 82.4658 62.9782 83.0227 63.4153 83.4597C63.8523 83.8967 64.4091 84.1944 65.0153 84.3149C65.6215 84.4355 66.2498 84.3736 66.8209 84.1371C67.3919 83.9006 67.8799 83.5 68.2233 82.9861C68.5667 82.4722 68.75 81.868 68.75 81.25C68.75 80.4212 68.4207 79.6263 67.8347 79.0403C67.2486 78.4542 66.4538 78.125 65.625 78.125ZM65.625 62.5C65.0069 62.5 64.4027 62.6833 63.8888 63.0266C63.3749 63.37 62.9744 63.8581 62.7379 64.4291C62.5013 65.0001 62.4394 65.6285 62.56 66.2346C62.6806 66.8408 62.9782 67.3977 63.4153 67.8347C63.8523 68.2717 64.4091 68.5694 65.0153 68.6899C65.6215 68.8105 66.2498 68.7486 66.8209 68.5121C67.3919 68.2756 67.8799 67.875 68.2233 67.3611C68.5667 66.8472 68.75 66.2431 68.75 65.625C68.75 64.7962 68.4207 64.0013 67.8347 63.4153C67.2486 62.8292 66.4538 62.5 65.625 62.5ZM65.625 46.875C65.0069 46.875 64.4027 47.0583 63.8888 47.4016C63.3749 47.745 62.9744 48.2331 62.7379 48.8041C62.5013 49.3751 62.4394 50.0035 62.56 50.6096C62.6806 51.2158 62.9782 51.7727 63.4153 52.2097C63.8523 52.6467 64.4091 52.9444 65.0153 53.0649C65.6215 53.1855 66.2498 53.1236 66.8209 52.8871C67.3919 52.6506 67.8799 52.25 68.2233 51.7361C68.5667 51.2222 68.75 50.618 68.75 50C68.75 49.1712 68.4207 48.3763 67.8347 47.7903C67.2486 47.2042 66.4538 46.875 65.625 46.875Z" fill="#560029"/>
</svg>
