<svg width="80" height="80" viewBox="0 0 80 80" fill="none" xmlns="http://www.w3.org/2000/svg">
<path d="M36 8C31.7565 8 27.6869 9.68571 24.6863 12.6863C21.6857 15.6869 20 19.7565 20 24C20 28.2435 21.6857 32.3131 24.6863 35.3137C27.6869 38.3143 31.7565 40 36 40C40.2435 40 44.3131 38.3143 47.3137 35.3137C50.3143 32.3131 52 28.2435 52 24C52 19.7565 50.3143 15.6869 47.3137 12.6863C44.3131 9.68571 40.2435 8 36 8ZM24 24C24 20.8174 25.2643 17.7652 27.5147 15.5147C29.7652 13.2643 32.8174 12 36 12C39.1826 12 42.2348 13.2643 44.4853 15.5147C46.7357 17.7652 48 20.8174 48 24C48 27.1826 46.7357 30.2348 44.4853 32.4853C42.2348 34.7357 39.1826 36 36 36C32.8174 36 29.7652 34.7357 27.5147 32.4853C25.2643 30.2348 24 27.1826 24 24ZM16.036 44C14.9824 43.9953 13.9382 44.1987 12.9635 44.5986C11.9887 44.9985 11.1025 45.587 10.3559 46.3304C9.60917 47.0737 9.01668 47.9572 8.61239 48.9302C8.2081 49.9032 7.99999 50.9464 8 52C8 58.764 11.332 63.864 16.54 67.188C21.668 70.456 28.58 72 36 72C37.6453 72 39.2587 71.924 40.84 71.772C39.8855 70.5837 39.057 69.2995 38.368 67.94C37.592 67.98 36.8027 68 36 68C29.06 68 22.972 66.544 18.692 63.812C14.492 61.132 12 57.24 12 52C12 49.788 13.792 48 16.036 48H38.396C39.1347 46.5653 40.012 45.232 41.028 44H16.036ZM76 58C76 62.7739 74.1036 67.3523 70.7279 70.7279C67.3523 74.1036 62.7739 76 58 76C53.2261 76 48.6477 74.1036 45.2721 70.7279C41.8964 67.3523 40 62.7739 40 58C40 53.2261 41.8964 48.6477 45.2721 45.2721C48.6477 41.8964 53.2261 40 58 40C62.7739 40 67.3523 41.8964 70.7279 45.2721C74.1036 48.6477 76 53.2261 76 58ZM59.904 47.44C59.7885 47.0238 59.5397 46.6569 59.1959 46.3955C58.852 46.1341 58.4319 45.9925 58 45.9925C57.5681 45.9925 57.148 46.1341 56.8041 46.3955C56.4603 46.6569 56.2115 47.0238 56.096 47.44L54.188 53.568H48C46.064 53.568 45.256 56.156 46.824 57.344L51.824 61.132L49.916 67.26C49.316 69.18 51.428 70.78 52.996 69.592L57.996 65.804L62.996 69.592C64.564 70.78 66.676 69.18 66.076 67.26L64.168 61.132L69.168 57.344C70.736 56.156 69.928 53.568 67.992 53.568H61.812L59.904 47.44Z" fill="#560029"/>
</svg>
