<svg width="64" height="64" viewBox="0 0 64 64" fill="none" xmlns="http://www.w3.org/2000/svg">
<path d="M26.6667 13.3335L32 8.00012M21.3333 42.6668L42.6667 21.3335M32 56.0001L37.3333 50.6668M44 50.6668C45.7681 50.6668 47.4638 49.9644 48.714 48.7142C49.9643 47.4639 50.6667 45.7682 50.6667 44.0001C50.6667 42.232 49.9643 40.5363 48.714 39.2861C47.4638 38.0358 45.7681 37.3335 44 37.3335C42.2319 37.3335 40.5362 38.0358 39.286 39.2861C38.0357 40.5363 37.3333 42.232 37.3333 44.0001C37.3333 45.7682 38.0357 47.4639 39.286 48.7142C40.5362 49.9644 42.2319 50.6668 44 50.6668ZM20 26.6668C21.7681 26.6668 23.4638 25.9644 24.714 24.7142C25.9643 23.4639 26.6667 21.7682 26.6667 20.0001C26.6667 18.232 25.9643 16.5363 24.714 15.2861C23.4638 14.0358 21.7681 13.3335 20 13.3335C18.2319 13.3335 16.5362 14.0358 15.286 15.2861C14.0357 16.5363 13.3333 18.232 13.3333 20.0001C13.3333 21.7682 14.0357 23.4639 15.286 24.7142C16.5362 25.9644 18.2319 26.6668 20 26.6668ZM14.6667 56.0001C16.4348 56.0001 18.1305 55.2977 19.3807 54.0475C20.631 52.7973 21.3333 51.1016 21.3333 49.3335C21.3333 47.5653 20.631 45.8697 19.3807 44.6194C18.1305 43.3692 16.4348 42.6668 14.6667 42.6668C12.8986 42.6668 11.2029 43.3692 9.95262 44.6194C8.70238 45.8697 8 47.5653 8 49.3335C8 51.1016 8.70238 52.7973 9.95262 54.0475C11.2029 55.2977 12.8986 56.0001 14.6667 56.0001ZM49.3333 21.3335C51.1014 21.3335 52.7971 20.6311 54.0474 19.3808C55.2976 18.1306 56 16.4349 56 14.6668C56 12.8987 55.2976 11.203 54.0474 9.95274C52.7971 8.7025 51.1014 8.00012 49.3333 8.00012C47.5652 8.00012 45.8695 8.7025 44.6193 9.95274C43.369 11.203 42.6667 12.8987 42.6667 14.6668C42.6667 16.4349 43.369 18.1306 44.6193 19.3808C45.8695 20.6311 47.5652 21.3335 49.3333 21.3335Z" stroke="#F9A024" stroke-width="5.33333" stroke-linecap="round" stroke-linejoin="round"/>
</svg>
