<svg width="128" height="128" viewBox="0 0 128 128" fill="none" xmlns="http://www.w3.org/2000/svg">
<path d="M89.6002 17.6C89.6002 16.327 90.1059 15.1061 91.0061 14.2059C91.9062 13.3057 93.1271 12.8 94.4002 12.8H110.4C111.673 12.8 112.894 13.3057 113.794 14.2059C114.694 15.1061 115.2 16.327 115.2 17.6V33.6C115.2 34.8731 114.694 36.094 113.794 36.9941C112.894 37.8943 111.673 38.4 110.4 38.4C109.127 38.4 107.906 37.8943 107.006 36.9941C106.106 36.094 105.6 34.8731 105.6 33.6V29.184L76.9922 57.792C76.0922 58.6909 74.8722 59.1958 73.6002 59.1958C72.3282 59.1958 71.1082 58.6909 70.2082 57.792L54.4002 41.984L27.3922 68.992C26.9527 69.4636 26.4228 69.8419 25.834 70.1042C25.2452 70.3666 24.6096 70.5076 23.9651 70.519C23.3206 70.5304 22.6804 70.4118 22.0828 70.1704C21.4851 69.929 20.9421 69.5697 20.4863 69.1139C20.0305 68.6581 19.6712 68.1151 19.4298 67.5174C19.1884 66.9198 19.0698 66.2796 19.0812 65.6351C19.0926 64.9906 19.2336 64.355 19.496 63.7662C19.7583 63.1774 20.1366 62.6475 20.6082 62.208L51.0082 31.808C51.9082 30.9091 53.1282 30.4042 54.4002 30.4042C55.6722 30.4042 56.8922 30.9091 57.7922 31.808L73.6002 47.616L98.8162 22.4H94.4002C93.1271 22.4 91.9062 21.8943 91.0061 20.9941C90.1059 20.094 89.6002 18.8731 89.6002 17.6ZM24.0002 89.6C25.2732 89.6 26.4941 90.1057 27.3943 91.0059C28.2945 91.9061 28.8002 93.127 28.8002 94.4V110.4C28.8002 111.673 28.2945 112.894 27.3943 113.794C26.4941 114.694 25.2732 115.2 24.0002 115.2C22.7271 115.2 21.5062 114.694 20.6061 113.794C19.7059 112.894 19.2002 111.673 19.2002 110.4V94.4C19.2002 93.127 19.7059 91.9061 20.6061 91.0059C21.5062 90.1057 22.7271 89.6 24.0002 89.6ZM54.4002 75.2C54.4002 73.927 53.8945 72.7061 52.9943 71.8059C52.0941 70.9057 50.8732 70.4 49.6002 70.4C48.3271 70.4 47.1062 70.9057 46.2061 71.8059C45.3059 72.7061 44.8002 73.927 44.8002 75.2V110.4C44.8002 111.673 45.3059 112.894 46.2061 113.794C47.1062 114.694 48.3271 115.2 49.6002 115.2C50.8732 115.2 52.0941 114.694 52.9943 113.794C53.8945 112.894 54.4002 111.673 54.4002 110.4V75.2ZM75.2002 83.2C76.4732 83.2 77.6941 83.7057 78.5943 84.6059C79.4945 85.5061 80.0002 86.727 80.0002 88V110.4C80.0002 111.673 79.4945 112.894 78.5943 113.794C77.6941 114.694 76.4732 115.2 75.2002 115.2C73.9271 115.2 72.7062 114.694 71.8061 113.794C70.9059 112.894 70.4002 111.673 70.4002 110.4V88C70.4002 86.727 70.9059 85.5061 71.8061 84.6059C72.7062 83.7057 73.9271 83.2 75.2002 83.2ZM105.6 62.4C105.6 61.127 105.094 59.9061 104.194 59.0059C103.294 58.1057 102.073 57.6 100.8 57.6C99.5271 57.6 98.3062 58.1057 97.4061 59.0059C96.5059 59.9061 96.0002 61.127 96.0002 62.4V110.4C96.0002 111.673 96.5059 112.894 97.4061 113.794C98.3062 114.694 99.5271 115.2 100.8 115.2C102.073 115.2 103.294 114.694 104.194 113.794C105.094 112.894 105.6 111.673 105.6 110.4V62.4Z" fill="black"/>
</svg>
