<svg width="65" height="65" viewBox="0 0 65 65" fill="none" xmlns="http://www.w3.org/2000/svg">
<path d="M45.3004 9.78367C45.3004 9.14715 45.5533 8.5367 46.0033 8.08661C46.4534 7.63652 47.0639 7.38367 47.7004 7.38367H55.7004C56.3369 7.38367 56.9474 7.63652 57.3975 8.08661C57.8475 8.5367 58.1004 9.14715 58.1004 9.78367V17.7837C58.1004 18.4202 57.8475 19.0306 57.3975 19.4807C56.9474 19.9308 56.3369 20.1837 55.7004 20.1837C55.0639 20.1837 54.4534 19.9308 54.0033 19.4807C53.5532 19.0306 53.3004 18.4202 53.3004 17.7837V15.5757L38.9964 29.8797C38.5464 30.3291 37.9364 30.5816 37.3004 30.5816C36.6644 30.5816 36.0544 30.3291 35.6044 29.8797L27.7004 21.9757L14.1964 35.4797C13.9767 35.7155 13.7117 35.9046 13.4173 36.0358C13.1229 36.1669 12.8051 36.2375 12.4829 36.2432C12.1606 36.2488 11.8405 36.1896 11.5417 36.0689C11.2428 35.9482 10.9714 35.7685 10.7435 35.5406C10.5156 35.3127 10.3359 35.0412 10.2152 34.7424C10.0945 34.4435 10.0352 34.1234 10.0409 33.8012C10.0466 33.4789 10.1171 33.1611 10.2483 32.8667C10.3795 32.5723 10.5686 32.3074 10.8044 32.0877L26.0044 16.8877C26.4544 16.4382 27.0644 16.1858 27.7004 16.1858C28.3364 16.1858 28.9464 16.4382 29.3964 16.8877L37.3004 24.7917L49.9084 12.1837H47.7004C47.0639 12.1837 46.4534 11.9308 46.0033 11.4807C45.5533 11.0306 45.3004 10.4202 45.3004 9.78367ZM12.5004 45.7837C13.1369 45.7837 13.7474 46.0365 14.1975 46.4866C14.6475 46.9367 14.9004 47.5471 14.9004 48.1837V56.1837C14.9004 56.8202 14.6475 57.4306 14.1975 57.8807C13.7474 58.3308 13.1369 58.5837 12.5004 58.5837C11.8639 58.5837 11.2534 58.3308 10.8033 57.8807C10.3533 57.4306 10.1004 56.8202 10.1004 56.1837V48.1837C10.1004 47.5471 10.3533 46.9367 10.8033 46.4866C11.2534 46.0365 11.8639 45.7837 12.5004 45.7837ZM27.7004 38.5837C27.7004 37.9471 27.4475 37.3367 26.9974 36.8866C26.5474 36.4365 25.9369 36.1837 25.3004 36.1837C24.6639 36.1837 24.0534 36.4365 23.6033 36.8866C23.1532 37.3367 22.9004 37.9471 22.9004 38.5837V56.1837C22.9004 56.8202 23.1532 57.4306 23.6033 57.8807C24.0534 58.3308 24.6639 58.5837 25.3004 58.5837C25.9369 58.5837 26.5474 58.3308 26.9974 57.8807C27.4475 57.4306 27.7004 56.8202 27.7004 56.1837V38.5837ZM38.1004 42.5837C38.7369 42.5837 39.3474 42.8365 39.7974 43.2866C40.2475 43.7367 40.5004 44.3471 40.5004 44.9837V56.1837C40.5004 56.8202 40.2475 57.4306 39.7974 57.8807C39.3474 58.3308 38.7369 58.5837 38.1004 58.5837C37.4639 58.5837 36.8534 58.3308 36.4033 57.8807C35.9533 57.4306 35.7004 56.8202 35.7004 56.1837V44.9837C35.7004 44.3471 35.9533 43.7367 36.4033 43.2866C36.8534 42.8365 37.4639 42.5837 38.1004 42.5837ZM53.3004 32.1837C53.3004 31.5471 53.0475 30.9367 52.5975 30.4866C52.1474 30.0365 51.5369 29.7837 50.9004 29.7837C50.2639 29.7837 49.6534 30.0365 49.2033 30.4866C48.7533 30.9367 48.5004 31.5471 48.5004 32.1837V56.1837C48.5004 56.8202 48.7533 57.4306 49.2033 57.8807C49.6534 58.3308 50.2639 58.5837 50.9004 58.5837C51.5369 58.5837 52.1474 58.3308 52.5975 57.8807C53.0475 57.4306 53.3004 56.8202 53.3004 56.1837V32.1837Z" fill="#F9A024"/>
</svg>
