<svg width="64" height="64" viewBox="0 0 64 64" fill="none" xmlns="http://www.w3.org/2000/svg">
<path d="M20.2134 34.8263V53.7063C20.2134 54.8237 19.7695 55.8954 18.9794 56.6856C18.1892 57.4757 17.1175 57.9196 16.0001 57.9196H10.9868C9.86933 57.9196 8.79765 57.4757 8.00749 56.6856C7.21734 55.8954 6.77344 54.8237 6.77344 53.7063V34.8263C6.77342 33.7064 7.21647 32.632 8.00586 31.8376C8.79526 31.0432 9.86688 30.5933 10.9868 30.5863H16.0001C17.12 30.5933 18.1916 31.0432 18.981 31.8376C19.7704 32.632 20.2135 33.7064 20.2134 34.8263ZM38.7201 22.5863V53.7863C38.7131 54.9062 38.2632 55.9778 37.4688 56.7672C36.6745 57.5566 35.6 57.9997 34.4801 57.9996H29.4934C28.3735 57.9997 27.2991 57.5566 26.5047 56.7672C25.7103 55.9778 25.2605 54.9062 25.2534 53.7863V22.5863C25.2534 21.4618 25.7002 20.3833 26.4953 19.5882C27.2905 18.793 28.3689 18.3463 29.4934 18.3463H34.4801C35.6046 18.3463 36.6831 18.793 37.4782 19.5882C38.2734 20.3833 38.7201 21.4618 38.7201 22.5863ZM57.2268 10.2396V53.7863C57.2197 54.9062 56.7699 55.9778 55.9755 56.7672C55.1811 57.5566 54.1067 57.9997 52.9868 57.9996H48.0001C46.8802 57.9997 45.8058 57.5566 45.0114 56.7672C44.217 55.9778 43.7671 54.9062 43.7601 53.7863V10.2396C43.7601 9.11512 44.2068 8.03666 45.002 7.2415C45.7971 6.44635 46.8756 5.99963 48.0001 5.99963H52.9868C54.1113 5.99963 55.1898 6.44635 55.9849 7.2415C56.7801 8.03666 57.2268 9.11512 57.2268 10.2396Z" fill="#F9A024"/>
</svg>
