<svg width="65" height="65" viewBox="0 0 65 65" fill="none" xmlns="http://www.w3.org/2000/svg">
<path d="M32.5 22.317C32.5 22.317 32.5 22.317 34.5267 19.6503C36.8733 16.557 40.34 14.317 44.5 14.317C51.14 14.317 56.5 19.677 56.5 26.317C56.5 28.797 55.7533 31.0903 54.4733 32.9837C52.3133 36.2103 32.5 56.9837 32.5 56.9837C32.5 56.9837 12.6867 36.2103 10.5267 32.9837C9.24667 31.0903 8.5 28.797 8.5 26.317C8.5 19.677 13.86 14.317 20.5 14.317C24.66 14.317 28.1533 16.557 30.4733 19.6503C32.5 22.317 32.5 22.317 32.5 22.317Z" fill="#F9A024"/>
<path d="M32.5 22.317C32.5 22.317 32.5 22.317 30.4733 19.6503C28.1267 16.557 24.66 14.317 20.5 14.317C13.86 14.317 8.5 19.677 8.5 26.317C8.5 28.797 9.24667 31.0903 10.5267 32.9837C12.6867 36.2103 32.5 56.9837 32.5 56.9837M32.5 22.317C32.5 22.317 32.5 22.317 34.5267 19.6503C36.8733 16.557 40.34 14.317 44.5 14.317C51.14 14.317 56.5 19.677 56.5 26.317C56.5 28.797 55.7533 31.0903 54.4733 32.9837C52.3133 36.2103 32.5 56.9837 32.5 56.9837" stroke="#F9A024" stroke-width="5.33333" stroke-linecap="round" stroke-linejoin="round"/>
</svg>
