<svg width="65" height="65" viewBox="0 0 65 65" fill="none" xmlns="http://www.w3.org/2000/svg">
<path d="M35.1674 8.98364C25.114 8.98364 17.0074 16.8503 16.5007 26.7436L11.3807 33.4903C10.7407 34.317 11.3807 35.6503 12.5007 35.6503H16.5007V43.6503C16.5007 46.6103 18.874 48.9836 21.834 48.9836H24.5007V56.9836H43.1674V44.477C49.4874 41.4903 53.834 35.117 53.834 27.6503C53.834 17.357 45.514 8.98364 35.1674 8.98364ZM37.834 38.317H32.5007V35.6503H37.834V38.317ZM42.1007 26.317C41.3905 27.5161 40.3793 28.5089 39.1674 29.197V32.9836H31.1674V29.197C27.354 26.9836 26.0207 22.1036 28.234 18.317C30.4474 14.5303 35.354 13.1436 39.1674 15.3303C42.9807 17.517 44.314 22.4503 42.1007 26.317Z" fill="#F9A024"/>
</svg>
