<svg width="64" height="64" viewBox="0 0 64 64" fill="none" xmlns="http://www.w3.org/2000/svg">
<path d="M40.0002 42.6667C40.7074 42.6667 41.3857 42.3858 41.8858 41.8857C42.3859 41.3856 42.6668 40.7073 42.6668 40V24C42.6668 23.2928 42.3859 22.6145 41.8858 22.1144C41.3857 21.6143 40.7074 21.3334 40.0002 21.3334H24.0002C23.2929 21.3334 22.6146 21.6143 22.1145 22.1144C21.6144 22.6145 21.3335 23.2928 21.3335 24V40C21.3335 40.7073 21.6144 41.3856 22.1145 41.8857C22.6146 42.3858 23.2929 42.6667 24.0002 42.6667H40.0002Z" fill="#F9A024"/>
<path d="M13.3335 42.6667H16.0001V21.3333C16.0001 19.9188 16.562 18.5623 17.5622 17.5621C18.5624 16.5619 19.919 16 21.3335 16H42.6668V13.3333C42.6668 11.9188 42.1049 10.5623 41.1047 9.5621C40.1045 8.5619 38.7479 8 37.3335 8H13.3335C11.919 8 10.5624 8.5619 9.56222 9.5621C8.56203 10.5623 8.00012 11.9188 8.00012 13.3333V37.3333C8.00012 38.7478 8.56203 40.1044 9.56222 41.1046C10.5624 42.1048 11.919 42.6667 13.3335 42.6667ZM21.3335 50.6667C21.3335 52.0812 21.8954 53.4377 22.8956 54.4379C23.8957 55.4381 25.2523 56 26.6668 56H50.6668C52.0813 56 53.4378 55.4381 54.438 54.4379C55.4382 53.4377 56.0001 52.0812 56.0001 50.6667V26.6667C56.0001 25.2522 55.4382 23.8956 54.438 22.8954C53.4378 21.8952 52.0813 21.3333 50.6668 21.3333H48.0001V42.6667C48.0001 44.0812 47.4382 45.4377 46.438 46.4379C45.4378 47.4381 44.0813 48 42.6668 48H21.3335V50.6667Z" fill="#F9A024"/>
</svg>
