<svg width="114" height="33" viewBox="0 0 114 33" fill="none" xmlns="http://www.w3.org/2000/svg">
<path fill-rule="evenodd" clip-rule="evenodd" d="M26.679 22.7732H21.635V2.45569H26.679V12.7585H28.9829L32.1592 7.38072H37.5032L33.1817 14.7888L37.5032 22.7732H32.1592L28.8466 16.682H26.679V22.7732Z" fill="#ED017F"/>
<path fill-rule="evenodd" clip-rule="evenodd" d="M53.0842 18.4243C53.0842 19.8785 52.6752 21.0172 51.8573 21.8403C51.0393 22.6634 49.9078 23.075 48.4628 23.075H41.8238C40.3787 23.075 39.2473 22.6634 38.4293 21.8403C37.6114 21.0172 37.2024 19.8785 37.2024 18.4243V11.7433C37.2024 10.2891 37.6114 9.15046 38.4293 8.32734C39.2473 7.50421 40.3787 7.09265 41.8238 7.09265H48.4628C49.9078 7.09265 51.0393 7.50421 51.8573 8.32734C52.6752 9.15046 53.0842 10.2891 53.0842 11.7433V18.4243ZM48.0264 12.1823C48.0264 11.4141 47.6447 11.0162 46.8677 11.0162H43.405C42.6416 11.0162 42.2463 11.4004 42.2463 12.1823V17.9854C42.2463 18.7536 42.628 19.1514 43.405 19.1514H46.8677C47.6311 19.1514 48.0264 18.7673 48.0264 17.9854V12.1823Z" fill="#ED017F"/>
<path fill-rule="evenodd" clip-rule="evenodd" d="M63.0368 11.3044C62.0143 11.3044 60.8692 11.4964 59.5741 11.8806V22.7733H54.5301V7.39454H59.0016L59.2878 8.84873C60.1876 8.2451 61.1146 7.8061 62.0689 7.53173C63.0231 7.25735 63.8274 7.10645 64.4818 7.10645H65.7769C67.0856 7.10645 68.1353 7.50429 68.926 8.29998C69.7166 9.09566 70.112 10.152 70.112 11.469V22.787H65.068V12.3333C65.068 12.0452 64.9726 11.7983 64.7817 11.6062C64.5909 11.4141 64.3455 11.3181 64.0592 11.3181H63.0368V11.3044Z" fill="#ED017F"/>
<path fill-rule="evenodd" clip-rule="evenodd" d="M81.4948 21.6208C79.6272 22.0049 77.9913 22.197 76.5872 22.197H75.5784C74.2697 22.197 73.22 21.7991 72.4293 21.0035C71.6386 20.2078 71.2433 19.1514 71.2433 17.8344V12.0314C71.2433 10.5772 71.6522 9.43855 72.4702 8.61543C73.2881 7.7923 74.4196 7.38074 75.8646 7.38074H86.5388V23.6375C86.5388 24.9545 86.1435 26.0108 85.3528 26.8065C84.5621 27.6022 83.5124 28 82.2037 28C79.1773 28 75.8238 27.808 72.1021 27.4238V23.6512C75.7692 23.9393 78.5639 24.0902 80.4724 24.0902C80.7587 24.0902 81.0041 23.9942 81.1949 23.8021C81.3858 23.61 81.4812 23.3631 81.4812 23.075V21.6208H81.4948ZM78.0322 18.2734C79.2455 18.2734 80.4042 18.1773 81.4948 17.9853V11.3042H77.4596C76.6962 11.3042 76.3009 11.6884 76.3009 12.4703V17.2582C76.3009 17.5463 76.3963 17.7932 76.5872 17.9853C76.778 18.1773 77.0234 18.2734 77.3097 18.2734H78.0322Z" fill="#ED017F"/>
<path fill-rule="evenodd" clip-rule="evenodd" d="M89.0067 7.68263C92.5238 7.29851 95.7002 7.10645 98.5221 7.10645C99.8308 7.10645 100.881 7.50429 101.671 8.29998C102.462 9.09566 102.857 10.152 102.857 11.469V22.787H98.3858L98.0995 21.3328C97.1997 21.9364 96.2727 22.3754 95.3185 22.6498C94.3642 22.9242 93.5599 23.0751 92.9055 23.0751H91.8967C90.588 23.0751 89.5383 22.6772 88.7476 21.8815C87.957 21.0859 87.5616 20.0295 87.5616 18.7125V17.4092C87.5616 16.0922 87.957 15.0359 88.7476 14.2402C89.5383 13.4445 90.588 13.0467 91.8967 13.0467H97.8132V11.8806C97.8132 11.5925 97.7178 11.3455 97.5269 11.1535C97.3361 10.9614 97.0907 10.8654 96.8044 10.8654C95.5502 10.8654 94.1733 10.9203 92.6601 11.0437C91.1469 11.1535 89.9337 11.2495 89.0067 11.3044V7.68263ZM94.3372 19.0006C95.3597 19.0006 96.5048 18.8086 97.7999 18.4244V16.6822H93.6147C93.3284 16.6822 93.0831 16.7782 92.8922 16.9703C92.7014 17.1623 92.6059 17.4093 92.6059 17.6973V17.9854C92.6059 18.2735 92.7014 18.5205 92.8922 18.7125C93.0831 18.9046 93.3284 19.0006 93.6147 19.0006H94.3372Z" fill="#ED017F"/>
<path fill-rule="evenodd" clip-rule="evenodd" d="M19.5765 3.51192C17.4226 1.35807 14.7506 0.274292 11.5334 0.274292C8.32976 0.274292 5.64417 1.35807 3.50387 3.51192C1.34995 5.67948 0.286621 8.36836 0.286621 11.606C0.286621 14.8162 1.36358 17.505 3.50387 19.6863C5.6578 21.8539 8.32976 22.9377 11.5334 22.9377C14.737 22.9377 17.4226 21.8539 19.5765 19.7C21.7304 17.5325 22.7938 14.8436 22.7938 11.606C22.7938 8.36836 21.7168 5.66576 19.5765 3.51192Z" fill="#F9A024"/>
<path fill-rule="evenodd" clip-rule="evenodd" d="M11.533 23.2121C8.26125 23.2121 5.49387 22.0872 3.29905 19.8785C1.10423 17.6698 0 14.8849 0 11.6061C0 8.31357 1.11786 5.52866 3.29905 3.31994C5.49387 1.11122 8.26125 0 11.533 0C14.8048 0 17.5722 1.12494 19.767 3.31994C21.9618 5.52866 23.0661 8.31357 23.0661 11.6061C23.0661 14.8986 21.9482 17.6835 19.767 19.8922C17.5722 22.0872 14.8048 23.2121 11.533 23.2121ZM11.5331 0.548798C8.42488 0.548798 5.78019 1.61886 3.69443 3.70411C1.60867 5.80308 0.558971 8.4508 0.558971 11.5924C0.558971 14.7203 1.6223 17.368 3.69443 19.467C5.78019 21.5659 8.41125 22.636 11.5331 22.636C14.6549 22.636 17.286 21.5659 19.3717 19.4807C21.4575 17.3817 22.5072 14.734 22.5072 11.5924C22.5072 8.4508 21.4439 5.80308 19.3717 3.70411C17.286 1.60514 14.6549 0.548798 11.5331 0.548798Z" fill="#ED017F"/>
<path fill-rule="evenodd" clip-rule="evenodd" d="M5.6984 7.76477C6.121 7.40808 6.59814 7.24346 7.1707 7.22974C7.74326 7.21602 8.32946 7.32577 8.90202 7.55899C9.47458 7.77849 10.0471 8.12146 10.5924 8.50558L10.8515 8.2998C10.5106 7.6413 9.97898 7.10627 9.35189 6.69471C8.71116 6.28315 7.93412 6.04993 7.14343 6.04993C6.76173 6.04993 6.32549 6.11852 5.93015 6.29686C5.53481 6.47521 5.194 6.74958 4.93498 7.06511C4.67596 7.38065 4.51237 7.75105 4.40332 8.12146C4.30789 8.49187 4.25336 8.86227 4.29426 9.2464L4.62143 9.28755C4.92135 8.67021 5.27579 8.12146 5.6984 7.76477Z" fill="#ED017F"/>
<path fill-rule="evenodd" clip-rule="evenodd" d="M13.0055 6.70845C13.5099 6.35177 14.0552 6.10483 14.6141 5.99508C15.1867 5.87161 15.6775 5.92648 16.1682 6.17342C16.659 6.42036 17.1225 6.8868 17.5451 7.40811L17.8587 7.29836C17.8178 6.91423 17.6814 6.57127 17.5042 6.2283C17.3134 5.89905 17.068 5.5698 16.7408 5.32286C16.4136 5.0622 16.0183 4.88386 15.5957 4.80155C15.1731 4.71923 14.7368 4.74667 14.3688 4.8427C13.5917 5.02105 12.8965 5.43261 12.3648 5.98136C11.8468 6.53011 11.4514 7.17489 11.2606 7.88827L11.5605 8.02545C12.024 7.50414 12.5011 7.05142 13.0055 6.70845Z" fill="#ED017F"/>
<path fill-rule="evenodd" clip-rule="evenodd" d="M18.1855 14.3086C17.9537 14.8848 17.5993 15.4198 17.2039 15.8588C16.9994 16.092 16.7813 16.2978 16.5496 16.4762C16.3178 16.6682 16.0724 16.8466 15.8271 16.9975C14.8046 17.6148 13.6322 17.9715 12.4189 18.1636C11.2329 18.3556 10.006 18.3419 8.81998 18.0675C8.23379 17.9303 7.64759 17.7383 7.08866 17.4639C6.52973 17.2033 5.98443 16.8603 5.5073 16.4624L5.33008 16.6133C5.69815 17.1895 6.20255 17.6423 6.74785 18.0538C7.29315 18.4517 7.90661 18.7672 8.56096 19.0004C9.85605 19.4668 11.2602 19.5492 12.6098 19.3434C13.9321 19.1376 15.2818 18.6849 16.386 17.8343C17.4902 16.9975 18.3218 15.7353 18.4172 14.3635L18.1855 14.3086Z" fill="#ED017F"/>
<path fill-rule="evenodd" clip-rule="evenodd" d="M11.301 10.6594L11.7373 14.6927L11.969 14.6653L11.5328 10.632L11.301 10.6594Z" fill="#ED017F"/>
<path d="M89.5756 32.07C89.3223 32.07 89.1123 31.9933 88.9456 31.84C88.7856 31.68 88.7056 31.4833 88.7056 31.25C88.7056 31.0167 88.7856 30.8233 88.9456 30.67C89.1123 30.51 89.3223 30.43 89.5756 30.43C89.8223 30.43 90.0256 30.51 90.1856 30.67C90.3456 30.8233 90.4256 31.0167 90.4256 31.25C90.4256 31.4833 90.3456 31.68 90.1856 31.84C90.0256 31.9933 89.8223 32.07 89.5756 32.07ZM91.1933 29.23C91.1933 28.6567 91.3099 28.1567 91.5433 27.73C91.7766 27.2967 92.0999 26.9633 92.5133 26.73C92.9266 26.49 93.3999 26.37 93.9333 26.37C94.6199 26.37 95.1866 26.5433 95.6333 26.89C96.0866 27.23 96.3899 27.71 96.5433 28.33H95.0333C94.9533 28.09 94.8166 27.9033 94.6233 27.77C94.4366 27.63 94.2033 27.56 93.9233 27.56C93.5233 27.56 93.2066 27.7067 92.9733 28C92.7399 28.2867 92.6233 28.6967 92.6233 29.23C92.6233 29.7567 92.7399 30.1667 92.9733 30.46C93.2066 30.7467 93.5233 30.89 93.9233 30.89C94.4899 30.89 94.8599 30.6367 95.0333 30.13H96.5433C96.3899 30.73 96.0866 31.2067 95.6333 31.56C95.1799 31.9133 94.6133 32.09 93.9333 32.09C93.3999 32.09 92.9266 31.9733 92.5133 31.74C92.0999 31.5 91.7766 31.1667 91.5433 30.74C91.3099 30.3067 91.1933 29.8033 91.1933 29.23ZM100.029 32.09C99.4956 32.09 99.0156 31.9733 98.5889 31.74C98.1622 31.5 97.8256 31.1633 97.5789 30.73C97.3389 30.2967 97.2189 29.7967 97.2189 29.23C97.2189 28.6633 97.3422 28.1633 97.5889 27.73C97.8422 27.2967 98.1856 26.9633 98.6189 26.73C99.0522 26.49 99.5356 26.37 100.069 26.37C100.602 26.37 101.086 26.49 101.519 26.73C101.952 26.9633 102.292 27.2967 102.539 27.73C102.792 28.1633 102.919 28.6633 102.919 29.23C102.919 29.7967 102.789 30.2967 102.529 30.73C102.276 31.1633 101.929 31.5 101.489 31.74C101.056 31.9733 100.569 32.09 100.029 32.09ZM100.029 30.87C100.282 30.87 100.519 30.81 100.739 30.69C100.966 30.5633 101.146 30.3767 101.279 30.13C101.412 29.8833 101.479 29.5833 101.479 29.23C101.479 28.7033 101.339 28.3 101.059 28.02C100.786 27.7333 100.449 27.59 100.049 27.59C99.6489 27.59 99.3122 27.7333 99.0389 28.02C98.7722 28.3 98.6389 28.7033 98.6389 29.23C98.6389 29.7567 98.7689 30.1633 99.0289 30.45C99.2956 30.73 99.6289 30.87 100.029 30.87ZM110.826 26.38C111.506 26.38 112.053 26.59 112.466 27.01C112.886 27.4233 113.096 28.0033 113.096 28.75V32H111.696V28.94C111.696 28.5067 111.586 28.1767 111.366 27.95C111.146 27.7167 110.846 27.6 110.466 27.6C110.086 27.6 109.783 27.7167 109.556 27.95C109.336 28.1767 109.226 28.5067 109.226 28.94V32H107.826V28.94C107.826 28.5067 107.716 28.1767 107.496 27.95C107.276 27.7167 106.976 27.6 106.596 27.6C106.209 27.6 105.903 27.7167 105.676 27.95C105.456 28.1767 105.346 28.5067 105.346 28.94V32H103.946V26.46H105.346V27.13C105.526 26.8967 105.756 26.7133 106.036 26.58C106.323 26.4467 106.636 26.38 106.976 26.38C107.409 26.38 107.796 26.4733 108.136 26.66C108.476 26.84 108.739 27.1 108.926 27.44C109.106 27.12 109.366 26.8633 109.706 26.67C110.053 26.4767 110.426 26.38 110.826 26.38Z" fill="#ED017F"/>
</svg>
