<svg width="64" height="64" viewBox="0 0 64 64" fill="none" xmlns="http://www.w3.org/2000/svg">
<path d="M53.3335 45.3336C54.8624 45.3336 56.1513 45.867 57.2001 46.9336C58.249 48.0003 58.7646 49.2447 58.7468 50.667L37.3335 58.6669L18.6668 53.3336V29.3336H23.8668L43.2535 36.5069C44.6401 37.0581 45.3335 38.0536 45.3335 39.4936C45.3335 40.3292 45.0313 41.0581 44.4268 41.6803C43.8224 42.3025 43.0579 42.6314 42.1335 42.667H34.6668L30.0001 40.8803L29.1201 43.387L34.6668 45.3336H53.3335ZM42.6668 8.61362C44.5513 6.42695 46.9513 5.33362 49.8668 5.33362C52.2846 5.33362 54.329 6.22251 56.0001 8.00028C57.6713 9.77806 58.5601 11.8225 58.6668 14.1336C58.6668 15.9647 57.7779 18.1514 56.0001 20.6936C54.2224 23.2358 52.4713 25.3603 50.7468 27.0669C49.0224 28.7736 46.329 31.3069 42.6668 34.667C38.969 31.3069 36.249 28.7736 34.5068 27.0669C32.7646 25.3603 31.0135 23.2358 29.2535 20.6936C27.4935 18.1514 26.6313 15.9647 26.6668 14.1336C26.6668 11.7158 27.529 9.6714 29.2535 8.00028C30.9779 6.32917 33.0579 5.44028 35.4935 5.33362C38.3379 5.33362 40.729 6.42695 42.6668 8.61362ZM2.62415 29.3336H13.3335V58.6669H2.62415V29.3336Z" fill="#F9A024"/>
</svg>
