<svg width="52" height="52" viewBox="0 0 52 52" fill="none" xmlns="http://www.w3.org/2000/svg">
<path d="M6.87268 45.1273C9.40984 47.6666 13.4962 47.6666 21.6667 47.6666H30.3333C38.5038 47.6666 42.5902 47.6666 45.1273 45.1273C47.6645 42.588 47.6667 38.5038 47.6667 30.3333C47.6667 27.7983 47.6667 25.6576 47.5908 23.8333M45.1273 15.5393C42.5902 13 38.5038 13 30.3333 13L21.6667 13C13.4962 13 9.40984 13 6.87268 15.5393C4.33551 18.0786 4.33334 22.1628 4.33334 30.3333C4.33334 32.8683 4.33334 35.009 4.40918 36.8333M26 4.33331C30.0863 4.33331 32.1273 4.33331 33.397 5.60298C34.6667 6.87265 34.6667 8.91365 34.6667 13M18.603 5.60298C17.3333 6.87265 17.3333 8.91365 17.3333 13" stroke="#F9A024" stroke-width="3.25" stroke-linecap="round"/>
<path d="M19.8293 40V32.7105H17.617V30.8953H19.8293V28.5695H17.617V26.7542H19.8293V19.7484H22.7792L25.4737 26.7542H28.8206V19.7484H31.0613V26.7542H33.2737V28.5695H31.0613V30.8953H33.2737V32.7105H31.0613V40H28.0832L25.3886 32.7105H22.0417V40H19.8293ZM22.0417 30.8953H24.7079L23.857 28.5695H21.985L22.0417 30.8953ZM28.8206 36.0007H28.9341L28.849 32.7105H27.6577L28.8206 36.0007ZM21.985 26.7542H23.1763L21.985 23.2371H21.8715L21.985 26.7542ZM26.977 30.8953H28.8773L28.8206 28.5695H26.1261L26.977 30.8953Z" fill="#F9A024"/>
</svg>
