<svg width="42" height="42" viewBox="0 0 42 42" fill="none" xmlns="http://www.w3.org/2000/svg">
<path d="M21 7.875C21.3481 7.875 21.6819 8.01328 21.9281 8.25942C22.1742 8.50556 22.3125 8.8394 22.3125 9.1875V14.4375C22.3125 14.7856 22.1742 15.1194 21.9281 15.3656C21.6819 15.6117 21.3481 15.75 21 15.75C20.6519 15.75 20.3181 15.6117 20.0719 15.3656C19.8258 15.1194 19.6875 14.7856 19.6875 14.4375V9.1875C19.6875 8.8394 19.8258 8.50556 20.0719 8.25942C20.3181 8.01328 20.6519 7.875 21 7.875ZM31.5 28.875C31.5 31.6598 30.3938 34.3305 28.4246 36.2996C26.4555 38.2688 23.7848 39.375 21 39.375C18.2152 39.375 15.5445 38.2688 13.5754 36.2996C11.6062 34.3305 10.5 31.6598 10.5 28.875V13.125C10.5 10.3402 11.6062 7.66951 13.5754 5.70038C15.5445 3.73125 18.2152 2.625 21 2.625C23.7848 2.625 26.4555 3.73125 28.4246 5.70038C30.3938 7.66951 31.5 10.3402 31.5 13.125V28.875ZM21 0C17.519 0 14.1806 1.38281 11.7192 3.84422C9.25781 6.30564 7.875 9.64403 7.875 13.125V28.875C7.875 32.356 9.25781 35.6944 11.7192 38.1558C14.1806 40.6172 17.519 42 21 42C24.481 42 27.8194 40.6172 30.2808 38.1558C32.7422 35.6944 34.125 32.356 34.125 28.875V13.125C34.125 9.64403 32.7422 6.30564 30.2808 3.84422C27.8194 1.38281 24.481 0 21 0Z" fill="white"/>
</svg>
