<svg width="128" height="128" viewBox="0 0 128 128" fill="none" xmlns="http://www.w3.org/2000/svg">
<path d="M5.94299 106.917V73.8195L34.8984 61.4127L63.8539 73.8287V106.917L34.8984 119.314L5.94299 106.917Z" stroke="black" stroke-width="9.14286" stroke-linecap="round" stroke-linejoin="round"/>
<path d="M5.94299 73.7556L34.8984 86.1624L63.8538 73.7556M34.8984 28.5441L63.8447 40.9601L92.8001 28.5533" stroke="black" stroke-width="9.14286" stroke-linecap="round" stroke-linejoin="round"/>
<path d="M63.8447 73.7555L92.8002 86.1623L121.756 73.7555" stroke="black" stroke-width="9.14286" stroke-linecap="round" stroke-linejoin="round"/>
<path d="M34.8983 86.1807V119.324M92.8183 86.1807V119.324M63.8446 40.9601V74.0938M34.9166 61.3944V28.2972L63.8629 15.8904L92.8183 28.2972V61.3944L63.8629 73.8012L34.9166 61.3944ZM63.8446 106.917V73.8195L92.8 61.4127L121.755 73.8287V106.917L92.8 119.314L63.8446 106.917Z" stroke="black" stroke-width="9.14286" stroke-linecap="round" stroke-linejoin="round"/>
</svg>
