<svg width="100" height="100" viewBox="0 0 100 100" fill="none" xmlns="http://www.w3.org/2000/svg">
<path d="M86.625 27.2109L52.25 8.39061C51.5601 8.01315 50.7864 7.81531 50 7.81531C49.2136 7.81531 48.4399 8.01315 47.75 8.39061L13.375 27.2109C12.6376 27.6144 12.0222 28.2088 11.5934 28.9317C11.1645 29.6547 10.938 30.4797 10.9375 31.3203V68.6797C10.938 69.5203 11.1645 70.3453 11.5934 71.0682C12.0222 71.7912 12.6376 72.3856 13.375 72.789L47.75 91.6094C48.4393 91.9886 49.2133 92.1874 50 92.1874C50.7867 92.1874 51.5607 91.9886 52.25 91.6094L86.625 72.789C87.3624 72.3856 87.9778 71.7912 88.4066 71.0682C88.8355 70.3453 89.062 69.5203 89.0625 68.6797V31.3203C89.062 30.4797 88.8355 29.6547 88.4066 28.9317C87.9778 28.2088 87.3624 27.6144 86.625 27.2109ZM49.25 11.1328C49.4793 11.0049 49.7374 10.9377 50 10.9377C50.2626 10.9377 50.5207 11.0049 50.75 11.1328L84.6367 29.6875L69.7266 37.8476C69.6558 37.789 69.58 37.7367 69.5 37.6914L35.125 18.8711L49.25 11.1328ZM50 48.6328L15.3633 29.6875L31.8594 20.6523L66.4961 39.6133L50 48.6328ZM14.875 70.0391C14.6296 69.9048 14.4247 69.7071 14.2818 69.4666C14.1389 69.2261 14.0631 68.9516 14.0625 68.6719V32.5351L48.4375 51.3476V88.4219L14.875 70.0391ZM85.125 70.0391L51.5625 88.3984V51.3476L67.1875 42.7969V59.375C67.1875 59.7894 67.3521 60.1868 67.6451 60.4798C67.9382 60.7729 68.3356 60.9375 68.75 60.9375C69.1644 60.9375 69.5618 60.7729 69.8549 60.4798C70.1479 60.1868 70.3125 59.7894 70.3125 59.375V41.0859L85.9375 32.5351V68.6797C85.9369 68.9594 85.8611 69.2339 85.7182 69.4744C85.5753 69.7149 85.3704 69.9126 85.125 70.0469V70.0391Z" fill="#560029"/>
</svg>
