<svg width="64" height="64" viewBox="0 0 64 64" fill="none" xmlns="http://www.w3.org/2000/svg">
<mask id="mask0_670_3238" style="mask-type:luminance" maskUnits="userSpaceOnUse" x="2" y="6" width="60" height="52">
<path d="M58.6667 41.3333C58.6667 48.6973 52.6973 54.6667 45.3333 54.6667C42.9467 54.6667 40.704 54.04 38.7653 52.94C36.7122 51.7763 35.0043 50.0889 33.8158 48.0499C32.6274 46.011 32.0008 43.6934 32 41.3333C32 37.9093 33.2907 34.7867 35.4107 32.4267C36.6601 31.0323 38.1897 29.9172 39.8996 29.1544C41.6095 28.3916 43.461 27.9983 45.3333 28C52.6973 28 58.6667 33.9693 58.6667 41.3333Z" fill="white" stroke="white" stroke-width="5.33333" stroke-linecap="round" stroke-linejoin="round"/>
<path d="M45.3334 16V28C43.4611 27.9983 41.6095 28.3916 39.8996 29.1544C38.1898 29.9172 36.6602 31.0323 35.4107 32.4267C33.2102 34.8708 31.9948 38.0445 32 41.3333C32.0018 42.1067 32.0658 42.8613 32.192 43.5973C32.528 45.544 33.2919 47.3918 34.4287 49.0075C35.5654 50.6231 37.0466 51.9663 38.7654 52.94C35.216 54.0133 30.504 54.6667 25.3334 54.6667C14.288 54.6667 5.33337 51.6813 5.33337 48V16" stroke="white" stroke-width="5.33333" stroke-linecap="round" stroke-linejoin="round"/>
<path d="M45.3334 16C45.3334 19.6814 36.3787 22.6667 25.3334 22.6667C14.288 22.6667 5.33337 19.6814 5.33337 16C5.33337 12.3187 14.288 9.33337 25.3334 9.33337C36.3787 9.33337 45.3334 12.3187 45.3334 16Z" fill="white" stroke="white" stroke-width="5.33333" stroke-linecap="round" stroke-linejoin="round"/>
<path d="M5.33337 37.3334C5.33337 41.0147 14.288 44.0001 25.3334 44.0001C27.7427 44.0001 30.0534 43.8588 32.192 43.5974M5.33337 26.6667C5.33337 30.3481 14.288 33.3334 25.3334 33.3334C29.008 33.3334 32.452 33.0027 35.4107 32.4267" stroke="white" stroke-width="5.33333" stroke-linecap="round" stroke-linejoin="round"/>
<path d="M51.3333 38.6667L44 46.0001L40 42.0001" stroke="black" stroke-width="5.33333" stroke-linecap="round" stroke-linejoin="round"/>
</mask>
<g mask="url(#mask0_670_3238)">
<path d="M0 0H64V64H0V0Z" fill="#F9A024"/>
</g>
</svg>
