<svg width="100" height="100" viewBox="0 0 100 100" fill="none" xmlns="http://www.w3.org/2000/svg">
<path fill-rule="evenodd" clip-rule="evenodd" d="M25 45C27.6522 45 30.1957 43.9464 32.0711 42.0711C33.9464 40.1957 35 37.6522 35 35C35 32.3478 33.9464 29.8043 32.0711 27.9289C30.1957 26.0536 27.6522 25 25 25C22.3478 25 19.8043 26.0536 17.9289 27.9289C16.0536 29.8043 15 32.3478 15 35C15 37.6522 16.0536 40.1957 17.9289 42.0711C19.8043 43.9464 22.3478 45 25 45ZM25 50C26.9698 50 28.9204 49.612 30.7403 48.8582C32.5601 48.1044 34.2137 46.9995 35.6066 45.6066C36.9995 44.2137 38.1044 42.5601 38.8582 40.7403C39.612 38.9204 40 36.9698 40 35C40 33.0302 39.612 31.0796 38.8582 29.2597C38.1044 27.4399 36.9995 25.7863 35.6066 24.3934C34.2137 23.0005 32.5601 21.8956 30.7403 21.1418C28.9204 20.388 26.9698 20 25 20C21.0218 20 17.2064 21.5804 14.3934 24.3934C11.5804 27.2064 10 31.0218 10 35C10 38.9782 11.5804 42.7936 14.3934 45.6066C17.2064 48.4196 21.0218 50 25 50Z" fill="#560029"/>
<path fill-rule="evenodd" clip-rule="evenodd" d="M19.27 44.48C19.5028 44.7122 19.6875 44.9881 19.8136 45.2918C19.9396 45.5956 20.0045 45.9212 20.0045 46.25C20.0045 46.5788 19.9396 46.9045 19.8136 47.2082C19.6875 47.5119 19.5028 47.7878 19.27 48.02L17.58 49.705C14.3277 52.9582 12.5004 57.3699 12.5 61.97V71.25C12.5 71.9131 12.2366 72.5489 11.7678 73.0178C11.2989 73.4866 10.663 73.75 10 73.75C9.33696 73.75 8.70107 73.4866 8.23223 73.0178C7.76339 72.5489 7.5 71.9131 7.5 71.25V61.97C7.50071 56.0439 9.85493 50.3607 14.045 46.17L15.73 44.48C15.9622 44.2472 16.2381 44.0625 16.5418 43.9365C16.8456 43.8104 17.1712 43.7455 17.5 43.7455C17.8288 43.7455 18.1544 43.8104 18.4582 43.9365C18.7619 44.0625 19.0378 44.2472 19.27 44.48ZM78.23 42.98C77.9972 43.2122 77.8125 43.4881 77.6864 43.7918C77.5604 44.0956 77.4955 44.4212 77.4955 44.75C77.4955 45.0788 77.5604 45.4045 77.6864 45.7082C77.8125 46.0119 77.9972 46.2878 78.23 46.52L79.92 48.205C83.1723 51.4582 84.9996 55.8699 85 60.47V71.25C85 71.9131 85.2634 72.5489 85.7322 73.0178C86.2011 73.4866 86.837 73.75 87.5 73.75C88.163 73.75 88.7989 73.4866 89.2678 73.0178C89.7366 72.5489 90 71.9131 90 71.25V60.47C89.9993 54.5439 87.6451 48.8607 83.455 44.67L81.77 42.98C81.5378 42.7472 81.2619 42.5625 80.9582 42.4365C80.6544 42.3104 80.3288 42.2455 80 42.2455C79.6712 42.2455 79.3456 42.3104 79.0418 42.4365C78.7381 42.5625 78.4622 42.7472 78.23 42.98Z" fill="#560029"/>
<path fill-rule="evenodd" clip-rule="evenodd" d="M70 45C67.3478 45 64.8043 43.9464 62.9289 42.0711C61.0536 40.1957 60 37.6522 60 35C60 32.3478 61.0536 29.8043 62.9289 27.9289C64.8043 26.0536 67.3478 25 70 25C72.6522 25 75.1957 26.0536 77.0711 27.9289C78.9464 29.8043 80 32.3478 80 35C80 37.6522 78.9464 40.1957 77.0711 42.0711C75.1957 43.9464 72.6522 45 70 45ZM70 50C68.0302 50 66.0796 49.612 64.2598 48.8582C62.4399 48.1044 60.7863 46.9995 59.3934 45.6066C58.0005 44.2137 56.8956 42.5601 56.1418 40.7403C55.388 38.9204 55 36.9698 55 35C55 33.0302 55.388 31.0796 56.1418 29.2597C56.8956 27.4399 58.0005 25.7863 59.3934 24.3934C60.7863 23.0005 62.4399 21.8956 64.2598 21.1418C66.0796 20.388 68.0302 20 70 20C73.9782 20 77.7936 21.5804 80.6066 24.3934C83.4197 27.2064 85 31.0218 85 35C85 38.9782 83.4197 42.7936 80.6066 45.6066C77.7936 48.4197 73.9782 50 70 50ZM47.5 66.25C44.1848 66.25 41.0054 67.567 38.6612 69.9112C36.317 72.2554 35 75.4348 35 78.75V85.25C35 85.913 34.7366 86.5489 34.2678 87.0178C33.7989 87.4866 33.163 87.75 32.5 87.75C31.837 87.75 31.2011 87.4866 30.7322 87.0178C30.2634 86.5489 30 85.913 30 85.25V78.75C30 74.1087 31.8437 69.6575 35.1256 66.3756C38.4075 63.0938 42.8587 61.25 47.5 61.25C52.1413 61.25 56.5925 63.0938 59.8744 66.3756C63.1563 69.6575 65 74.1087 65 78.75V85.25C65 85.913 64.7366 86.5489 64.2678 87.0178C63.7989 87.4866 63.163 87.75 62.5 87.75C61.837 87.75 61.2011 87.4866 60.7322 87.0178C60.2634 86.5489 60 85.913 60 85.25V78.75C60 77.1085 59.6767 75.483 59.0485 73.9665C58.4203 72.4499 57.4996 71.0719 56.3388 69.9112C55.1781 68.7504 53.8001 67.8297 52.2835 67.2015C50.767 66.5733 49.1415 66.25 47.5 66.25Z" fill="#560029"/>
<path fill-rule="evenodd" clip-rule="evenodd" d="M47.5 58.75C50.1522 58.75 52.6957 57.6964 54.5711 55.8211C56.4464 53.9457 57.5 51.4022 57.5 48.75C57.5 46.0978 56.4464 43.5543 54.5711 41.6789C52.6957 39.8036 50.1522 38.75 47.5 38.75C44.8478 38.75 42.3043 39.8036 40.4289 41.6789C38.5536 43.5543 37.5 46.0978 37.5 48.75C37.5 51.4022 38.5536 53.9457 40.4289 55.8211C42.3043 57.6964 44.8478 58.75 47.5 58.75ZM47.5 63.75C51.4782 63.75 55.2936 62.1696 58.1066 59.3566C60.9196 56.5436 62.5 52.7282 62.5 48.75C62.5 44.7718 60.9196 40.9564 58.1066 38.1434C55.2936 35.3304 51.4782 33.75 47.5 33.75C43.5218 33.75 39.7064 35.3304 36.8934 38.1434C34.0804 40.9564 32.5 44.7718 32.5 48.75C32.5 52.7282 34.0804 56.5436 36.8934 59.3566C39.7064 62.1696 43.5218 63.75 47.5 63.75Z" fill="#560029"/>
</svg>
