<svg width="52" height="52" viewBox="0 0 52 52" fill="none" xmlns="http://www.w3.org/2000/svg">
<path d="M26 8.125C25.138 8.125 24.3114 8.46741 23.7019 9.0769C23.0924 9.6864 22.75 10.513 22.75 11.375C22.75 12.237 23.0924 13.0636 23.7019 13.6731C24.3114 14.2826 25.138 14.625 26 14.625C26.862 14.625 27.6886 14.2826 28.2981 13.6731C28.9076 13.0636 29.25 12.237 29.25 11.375C29.25 10.513 28.9076 9.6864 28.2981 9.0769C27.6886 8.46741 26.862 8.125 26 8.125ZM19.5 11.375C19.5 9.65109 20.1848 7.99779 21.4038 6.77881C22.6228 5.55982 24.2761 4.875 26 4.875C27.7239 4.875 29.3772 5.55982 30.5962 6.77881C31.8152 7.99779 32.5 9.65109 32.5 11.375C32.5 13.0989 31.8152 14.7522 30.5962 15.9712C29.3772 17.1902 27.7239 17.875 26 17.875C24.2761 17.875 22.6228 17.1902 21.4038 15.9712C20.1848 14.7522 19.5 13.0989 19.5 11.375ZM41.4375 9.75C40.791 9.75 40.171 10.0068 39.7139 10.4639C39.2568 10.921 39 11.541 39 12.1875C39 12.834 39.2568 13.454 39.7139 13.9111C40.171 14.3682 40.791 14.625 41.4375 14.625C42.084 14.625 42.704 14.3682 43.1611 13.9111C43.6182 13.454 43.875 12.834 43.875 12.1875C43.875 11.541 43.6182 10.921 43.1611 10.4639C42.704 10.0068 42.084 9.75 41.4375 9.75ZM35.75 12.1875C35.75 11.4406 35.8971 10.701 36.1829 10.011C36.4688 9.32095 36.8877 8.69396 37.4158 8.16583C37.944 7.6377 38.5709 7.21876 39.261 6.93293C39.951 6.64711 40.6906 6.5 41.4375 6.5C42.1844 6.5 42.924 6.64711 43.614 6.93293C44.3041 7.21876 44.931 7.6377 45.4592 8.16583C45.9873 8.69396 46.4062 9.32095 46.6921 10.011C46.9779 10.701 47.125 11.4406 47.125 12.1875C47.125 13.6959 46.5258 15.1426 45.4592 16.2092C44.3926 17.2758 42.9459 17.875 41.4375 17.875C39.9291 17.875 38.4824 17.2758 37.4158 16.2092C36.3492 15.1426 35.75 13.6959 35.75 12.1875ZM8.125 12.1875C8.125 11.541 8.38181 10.921 8.83893 10.4639C9.29605 10.0068 9.91603 9.75 10.5625 9.75C11.209 9.75 11.829 10.0068 12.2861 10.4639C12.7432 10.921 13 11.541 13 12.1875C13 12.834 12.7432 13.454 12.2861 13.9111C11.829 14.3682 11.209 14.625 10.5625 14.625C9.91603 14.625 9.29605 14.3682 8.83893 13.9111C8.38181 13.454 8.125 12.834 8.125 12.1875ZM10.5625 6.5C9.05408 6.5 7.60744 7.09922 6.54083 8.16583C5.47422 9.23244 4.875 10.6791 4.875 12.1875C4.875 13.6959 5.47422 15.1426 6.54083 16.2092C7.60744 17.2758 9.05408 17.875 10.5625 17.875C12.0709 17.875 13.5176 17.2758 14.5842 16.2092C15.6508 15.1426 16.25 13.6959 16.25 12.1875C16.25 10.6791 15.6508 9.23244 14.5842 8.16583C13.5176 7.09922 12.0709 6.5 10.5625 6.5ZM14.0579 39.8206C13.3229 40.305 12.4705 40.5814 11.5912 40.6205C10.7118 40.6595 9.8383 40.4597 9.06332 40.0423C8.28835 39.6249 7.64085 39.0055 7.18954 38.2498C6.73823 37.494 6.49995 36.6302 6.5 35.75L6.5 25.1875C6.5 24.972 6.5856 24.7653 6.73798 24.613C6.89035 24.4606 7.09701 24.375 7.3125 24.375H13.8629C14.0127 23.1856 14.4884 22.0608 15.2376 21.125H7.3125C6.23506 21.125 5.20175 21.553 4.43988 22.3149C3.67801 23.0767 3.25 24.1101 3.25 25.1875L3.25 35.75C3.24958 37.1492 3.61052 38.5249 4.29786 39.7436C4.9852 40.9624 5.97564 41.983 7.17325 42.7066C8.37085 43.4302 9.73503 43.8323 11.1336 43.8738C12.5323 43.9154 13.9179 43.5951 15.1564 42.9439C14.6498 41.9576 14.2803 40.9068 14.0579 39.8206ZM36.8436 42.9439C38.0821 43.5951 39.4677 43.9154 40.8664 43.8738C42.265 43.8323 43.6291 43.4302 44.8268 42.7066C46.0244 41.983 47.0148 40.9624 47.7021 39.7436C48.3895 38.5249 48.7504 37.1492 48.75 35.75V25.1875C48.75 24.1101 48.322 23.0767 47.5601 22.3149C46.7983 21.553 45.7649 21.125 44.6875 21.125H36.7624C37.5116 22.0608 37.9873 23.1856 38.1371 24.375H44.6875C44.903 24.375 45.1097 24.4606 45.262 24.613C45.4144 24.7653 45.5 24.972 45.5 25.1875V35.75C45.5 36.6302 45.2618 37.494 44.8105 38.2498C44.3592 39.0055 43.7117 39.6249 42.9367 40.0423C42.1617 40.4597 41.2882 40.6595 40.4088 40.6205C39.5295 40.5814 38.6771 40.305 37.9421 39.8206C37.7197 40.9068 37.3502 41.9576 36.8436 42.9439ZM20.3125 21.125C19.2351 21.125 18.2017 21.553 17.4399 22.3149C16.678 23.0767 16.25 24.1101 16.25 25.1875L16.25 37.375C16.25 39.9609 17.2772 42.4408 19.1057 44.2693C20.9342 46.0978 23.4141 47.125 26 47.125C28.5859 47.125 31.0658 46.0978 32.8943 44.2693C34.7228 42.4408 35.75 39.9609 35.75 37.375L35.75 25.1875C35.75 24.1101 35.322 23.0767 34.5601 22.3149C33.7983 21.553 32.7649 21.125 31.6875 21.125H20.3125ZM19.5 25.1875C19.5 24.972 19.5856 24.7653 19.738 24.613C19.8903 24.4606 20.097 24.375 20.3125 24.375H31.6875C31.903 24.375 32.1097 24.4606 32.262 24.613C32.4144 24.7653 32.5 24.972 32.5 25.1875V37.375C32.5 39.0989 31.8152 40.7522 30.5962 41.9712C29.3772 43.1902 27.7239 43.875 26 43.875C24.2761 43.875 22.6228 43.1902 21.4038 41.9712C20.1848 40.7522 19.5 39.0989 19.5 37.375V25.1875Z" fill="#F9A024"/>
</svg>
