<svg width="52" height="52" viewBox="0 0 52 52" fill="none" xmlns="http://www.w3.org/2000/svg">
<path d="M13 8.125C10.3122 8.125 8.12499 10.3122 8.12499 13C8.12499 15.6877 10.3122 17.875 13 17.875C15.6877 17.875 17.875 15.6877 17.875 13C17.875 10.3122 15.6877 8.125 13 8.125ZM39 8.125C36.3122 8.125 34.125 10.3122 34.125 13C34.125 15.6877 36.3122 17.875 39 17.875C41.6877 17.875 43.875 15.6877 43.875 13C43.875 10.3122 41.6877 8.125 39 8.125ZM13 11.375C13.431 11.375 13.8443 11.5462 14.149 11.851C14.4538 12.1557 14.625 12.569 14.625 13C14.625 13.431 14.4538 13.8443 14.149 14.149C13.8443 14.4538 13.431 14.625 13 14.625C12.569 14.625 12.1557 14.4538 11.8509 14.149C11.5462 13.8443 11.375 13.431 11.375 13C11.375 12.569 11.5462 12.1557 11.8509 11.851C12.1557 11.5462 12.569 11.375 13 11.375ZM39 11.375C39.431 11.375 39.8443 11.5462 40.149 11.851C40.4538 12.1557 40.625 12.569 40.625 13C40.625 13.431 40.4538 13.8443 40.149 14.149C39.8443 14.4538 39.431 14.625 39 14.625C38.569 14.625 38.1557 14.4538 37.8509 14.149C37.5462 13.8443 37.375 13.431 37.375 13C37.375 12.569 37.5462 12.1557 37.8509 11.851C38.1557 11.5462 38.569 11.375 39 11.375ZM11.128 19.5C10.7865 19.4996 10.4536 19.6067 10.1765 19.8063C9.89936 20.0058 9.69214 20.2875 9.58424 20.6115L6.70636 29.2467C6.49069 29.9007 6.48724 30.6061 6.69649 31.2622C6.90574 31.9183 7.31699 32.4914 7.87149 32.8997L13 36.5625V45.5H16.25V36.5625C16.25 35.5436 15.7625 34.5702 14.9207 33.9414L9.78736 30.2786L12.1046 23.3334C12.6571 24.7878 13.5769 27.1391 13.5769 27.1391C13.9636 28.1439 14.6721 28.9925 15.5919 29.5523L19.5 32.5H32.5L36.4097 29.5523C37.3275 28.9943 38.0352 28.1488 38.4231 27.1472C38.4231 27.1472 39.3299 24.8267 39.9019 23.3253L42.2419 30.2559L37.0549 33.9609C36.651 34.2641 36.323 34.6569 36.0966 35.1083C35.8702 35.5597 35.7516 36.0575 35.75 36.5625L35.75 45.5H39L38.9707 36.5853L44.1642 32.877C45.2855 32.0352 45.7372 30.576 45.2936 29.25L42.4157 20.6115C42.3078 20.2875 42.1006 20.0058 41.8235 19.8063C41.5464 19.6067 41.2135 19.4996 40.872 19.5H39.819C39.0845 19.5 37.7601 19.7568 37.128 21.4663C36.7152 22.5989 35.3974 25.9594 35.3941 25.9675C35.261 26.3151 35.0127 26.6065 34.6905 26.793C34.6331 26.8259 34.5777 26.8622 34.5247 26.9019L32.5 28.4245V19.5L19.5 19.5L19.5 28.4245L17.4752 26.9019C17.4223 26.8622 17.3669 26.8259 17.3095 26.793C16.9865 26.6053 16.738 26.3121 16.6059 25.9626C16.6059 25.9626 15.2896 22.5956 14.872 21.4614C14.2431 19.7535 12.9155 19.5 12.181 19.5H11.128ZM22.75 22.75L29.25 22.75L29.25 29.25H22.75L22.75 22.75ZM6.91924 34.2176L6.58936 37.5456C6.55253 37.9053 6.45936 38.2493 6.30986 38.5775L3.14111 45.5H6.71611L9.26249 39.9295C9.56149 39.2795 9.74836 38.5856 9.82149 37.8657L9.96774 36.3935L6.92411 34.2241L6.91924 34.2176ZM45.0807 34.2176L42.0306 36.3951L42.1769 37.8706C42.2505 38.5878 42.4369 39.2741 42.7359 39.9295L45.2839 45.5H48.8589L45.6901 38.5775C45.5406 38.2513 45.4462 37.9027 45.4106 37.5456L45.0807 34.2176Z" fill="#F9A024"/>
</svg>
