<svg width="100" height="100" viewBox="0 0 100 100" fill="none" xmlns="http://www.w3.org/2000/svg">
<path d="M68.75 28.125H81.55C82.3242 28.1258 83.0705 28.4139 83.6444 28.9335C84.2183 29.4531 84.5789 30.1672 84.6563 30.9375L86.5625 50H80.275L78.7125 34.375H68.75V43.75C68.75 44.5788 68.4208 45.3737 67.8347 45.9597C67.2487 46.5458 66.4538 46.875 65.625 46.875C64.7962 46.875 64.0014 46.5458 63.4153 45.9597C62.8293 45.3737 62.5 44.5788 62.5 43.75V34.375H37.5V43.75C37.5 44.5788 37.1708 45.3737 36.5847 45.9597C35.9987 46.5458 35.2038 46.875 34.375 46.875C33.5462 46.875 32.7514 46.5458 32.1653 45.9597C31.5793 45.3737 31.25 44.5788 31.25 43.75V34.375H21.2813L16.2813 84.375H50V90.625H12.825C12.3886 90.6246 11.957 90.5327 11.5582 90.3553C11.1594 90.178 10.8022 89.919 10.5095 89.5952C10.2169 89.2713 9.99534 88.8898 9.85915 88.4751C9.72295 88.0604 9.67514 87.6218 9.71879 87.1875L15.3438 30.9375C15.4212 30.1672 15.7818 29.4531 16.3557 28.9335C16.9295 28.4139 17.6759 28.1258 18.45 28.125H31.25V25.9438C31.25 15.1063 39.6 6.25 50 6.25C60.4 6.25 68.75 15.1063 68.75 25.9438V28.1313V28.125ZM62.5 28.125V25.9438C62.5 18.4812 56.8625 12.5 50 12.5C43.1375 12.5 37.5 18.4812 37.5 25.9438V28.1313H62.5V28.125ZM82.1688 75.375L75 68.2125V90.625C75 91.4538 74.6708 92.2487 74.0847 92.8347C73.4987 93.4208 72.7038 93.75 71.875 93.75C71.0462 93.75 70.2514 93.4208 69.6653 92.8347C69.0793 92.2487 68.75 91.4538 68.75 90.625V68.2125L61.5875 75.375C61.2993 75.6735 60.9544 75.9115 60.5732 76.0753C60.1919 76.2391 59.7819 76.3253 59.3669 76.3289C58.952 76.3325 58.5405 76.2534 58.1564 76.0963C57.7724 75.9392 57.4235 75.7071 57.1301 75.4137C56.8366 75.1203 56.6046 74.7714 56.4475 74.3874C56.2903 74.0033 56.2113 73.5918 56.2149 73.1769C56.2185 72.7619 56.3047 72.3519 56.4685 71.9706C56.6323 71.5893 56.8703 71.2445 57.1688 70.9562L69.6688 58.4562C70.2548 57.8704 71.0495 57.5413 71.8782 57.5413C72.7068 57.5413 73.5015 57.8704 74.0875 58.4562L86.5875 70.9562C86.886 71.2445 87.1241 71.5893 87.2879 71.9706C87.4516 72.3519 87.5378 72.7619 87.5414 73.1769C87.5451 73.5918 87.466 74.0033 87.3089 74.3874C87.1517 74.7714 86.9197 75.1203 86.6263 75.4137C86.3329 75.7071 85.9839 75.9392 85.5999 76.0963C85.2158 76.2534 84.8043 76.3325 84.3894 76.3289C83.9745 76.3253 83.5644 76.2391 83.1831 76.0753C82.8019 75.9115 82.4571 75.6735 82.1688 75.375Z" fill="#560029"/>
</svg>
