<svg width="65" height="65" viewBox="0 0 65 65" fill="none" xmlns="http://www.w3.org/2000/svg">
<path d="M30.5 6.5117C28.884 6.81303 26.9853 7.4637 24.068 8.4637L22.54 8.9837C14.5213 11.7304 10.5133 13.101 9.508 14.5357C8.52133 15.9384 8.5 20.0504 8.5 28.2104L30.5 20.877V6.5117ZM30.5 25.0904L8.5 32.4237V32.9597C8.5 47.9944 19.804 55.2904 26.8973 58.389C28.2573 58.9837 29.1373 59.3677 30.5 59.541V25.0904ZM34.5 59.5437V25.0904L56.5 32.4237V32.9597C56.5 47.9944 45.196 55.2904 38.1027 58.389C36.7427 58.9837 35.8627 59.3704 34.5 59.5437ZM34.5 20.877V6.50903C36.116 6.81037 38.0147 7.46103 40.932 8.46103L42.46 8.9837C50.4787 11.7277 54.4867 13.0984 55.492 14.533C56.4787 15.9357 56.5 20.0477 56.5 28.205L34.5 20.877Z" fill="#F9A024"/>
</svg>
