<svg id="Layer_1" data-name="Layer 1" xmlns="http://www.w3.org/2000/svg" width="730.19" height="274.02" viewBox="0 0 730.19 274.02"><defs><style>.cls-1{fill:#006db2;}.cls-2{fill:none;}</style></defs><title>tecno_mobile_logo_freelogovectors.net</title><path class="cls-1" d="M9.91,238.05q70.46,0,140.92,0v20c-11.05.05-22.11-.1-33.15,0-9.59.3-18,9.19-17.51,18.85q0,53.61,0,107.22H60.9q0-63.06,0-126.11h-51v-20m157.86,33.39c.08-17.39,15.23-33.19,32.72-33.41h87.13v20q-31.25,0-62.46,0c-8.41,0-16.07,6.63-17.77,14.77-1.16,6.94-.74,15,4.45,20.3a18.63,18.63,0,0,0,14.81,6.29c20.31,0,40.64,0,61,0q0,10,0,20H207c0,8.82-.1,17.64,0,26.46,0,9.62,8.66,18.25,18.25,18.29,20.78.1,41.56,0,62.33,0q0,10,0,20c-29.07,0-58.12.06-87.19-.05-17.27-.33-32.19-15.67-32.62-32.82-.19-26.6-.12-53.22,0-79.82m140-13.55a34.51,34.51,0,0,1,23.43-19.15c4.56-1.05,9.29-.68,13.93-.72,26.53,0,53.07,0,79.58,0v20q-30.84,0-61.69,0c-10.18-.53-19.58,8.69-19.26,18.87-.05,22.56,0,45.13,0,67.69-.53,10,8,19.31,18,19.53,21,.13,42,0,63,.05q0,10,0,20-42.54,0-85.1,0c-18,.86-34.65-14.78-34.94-32.83-.5-23.4-.06-46.81-.22-70.23,0-7.8-.21-16,3.32-23.2M441.64,238h107.5c15.63-.06,29.93,12.44,32.59,27.71.77,4.64.44,9.35.5,14q0,52.19,0,104.36H543.28c0-35.76,0-71.52,0-107.27.19-10-8.81-19.23-18.9-18.86q-21.89,0-43.8,0,0,63,0,126.12H441.64V238m182.49,1.15c4.7-1.46,9.69-1.16,14.55-1.16,23,.06,46,0,69,0,16.93.29,31.85,15.3,32.35,32.18q.06,40.62,0,81.26c-.32,17-15.3,32-32.23,32.59-23.49.14-47,0-70.49.09-4.1,0-8.27,0-12.25-1.05-14.21-3.51-25.52-17-25.62-31.75q0-40,0-79.91c-.24-14.71,10.68-28.35,24.71-32.28m28.94,19.22c-8.31,1.91-14.91,9.91-14.68,18.54,0,22.52,0,45,0,67.56a19.14,19.14,0,0,0,14.39,19.09c5.39,1.05,10.9.4,16.36.54,5.87-.19,11.85.58,17.66-.58,8.43-2,14.53-10.38,14.28-19,0-22.51.06-45,0-67.53.23-10.34-9.21-19.78-19.62-19-9.45.27-19-.51-28.36.4M511,402.83c4.48-2.65,10.57,1.18,10.23,6.35.15,25.79,0,51.59.07,77.39a10.78,10.78,0,0,0,11.27,11.23c8.81,0,17.61.18,26.42-.08,5.68-.25,10-5.78,9.79-11.29.06-10.57.08-21.14,0-31.71.2-5.54-4.33-10.85-9.91-11.16-6.37-.58-12.77.26-19.12-.35-5.22-.95-6.88-8.41-3.09-11.87,2.58-2.46,6.44-2,9.73-2.12,6,.07,12.08-.29,18,1a24.72,24.72,0,0,1,18.36,21.93c.52,8.22,0,16.46.22,24.69-.06,7.42.7,15.46-3.19,22.17-4.19,8.11-13.25,13-22.27,13s-18,.16-27.05-.1c-12.46-.47-23.24-11.62-23.27-24.09-.11-25.72,0-51.44-.05-77.15-.21-3.05.87-6.5,3.87-7.79m89.5-.3c4.4-2.06,10.19,1.72,9.62,6.68,0,5.43.6,11-.48,16.36-2,5.61-11.15,5.47-13-.15-1.13-5.35-.56-10.92-.5-16.35a7.07,7.07,0,0,1,4.38-6.54m26.31.46c4.37-3,11.29.82,10.56,6.23q.06,37.26,0,74.51c.07,3.69.21,7.94,3.14,10.64,2.55,2.76,6.78,3,9.37,5.65,3.45,4.22.25,12-5.55,11.34-11.47-1.08-20.82-12.06-20.73-23.48q0-39.36,0-78.73a6.68,6.68,0,0,1,3.19-6.16M302.15,439.52c0-5.3,4.76-9.76,9.93-10,5.53-.42,12.16-1,16.39,3.33,8.42,8.2,16.61,16.62,25,24.87,8.34-8.24,16.52-16.65,24.92-24.83,4.2-4.39,10.82-3.78,16.34-3.38,5.25.22,10,4.78,10,10.13.17,21.13,0,42.24.1,63.37.1,2.69-.11,5.84-2.59,7.5-3.92,3.43-11.26.59-11.15-4.81-.24-21.83,0-43.66-.1-65.5-9.89,9.8-19.68,19.7-29.55,29.53-4,4.63-12,4.61-16,0-9.86-9.83-19.66-19.73-29.55-29.53-.1,21.85.13,43.69-.1,65.53.08,5.44-7.33,8.2-11.23,4.72-2.39-1.64-2.61-4.72-2.51-7.34.14-21.19-.07-42.38.1-63.55m133.1-8.89c7.46-2.13,15.3-1.16,22.95-1.37,7.22.11,14.91-.7,21.63,2.55,8,3.92,14,12.42,13.85,21.52,0,11.55,0,23.08,0,34.63.23,12-10,22.66-21.79,23.75-9.13.58-18.31.12-27.44.26a25.17,25.17,0,0,1-22.78-12.24c-5.3-8.56-3-19-3.46-28.44.4-8.23-1.08-16.71,1.19-24.73a24.89,24.89,0,0,1,15.85-15.93m3.95,13.66a10.54,10.54,0,0,0-6.87,10.48q0,15.9,0,31.81C432,492.44,437.1,498,443,497.77q13.08.15,26.18,0a10.82,10.82,0,0,0,10.56-10.08c.32-9.6,0-19.22.15-28.82.09-4.37,0-9.48-3.68-12.5-4.45-4.25-11.09-2.72-16.65-3-6.78.41-13.78-1-20.39.9m225.36,9c0-11.59,9.51-22.23,21-23.62a252,252,0,0,1,33.09,0c11.62,1.24,21.42,11.95,21.36,23.67,0,5,.22,10.09-.16,15.14-.54,5.55-6.18,9.63-11.62,9-10.53-.15-21.09.27-31.6-.2-6.84-1.1-6.48-12.67.39-13.44,9.74-.43,19.49,0,29.22-.15-.23-5.76,1.13-12.81-3.55-17.22-3.54-3.74-9.09-3.08-13.74-3.14-6.85.18-13.7-.25-20.54.18a10.62,10.62,0,0,0-9.74,11.15c.05,11.1-.09,22.2.07,33.3,0,3.56,2.39,6.67,5.34,8.43,3.38,1.88,7.39,1.33,11.11,1.44,7.32-.22,14.67.3,22-.24,5.7-.67,7.79-6.39,10-10.8,3.38-5.25,12.22-2.3,12.5,3.71-1,11.12-11,20.45-22.05,21.25-6.12.45-12.25.07-18.37.19-5.92-.1-12,.55-17.76-1.3-9.61-3.08-17-12.59-16.94-22.78q-.06-17.28,0-34.55m-65.23-9.22c4.52-3.17,11.58.87,10.77,6.45q.07,26.94,0,53.88c.6,5-5.25,9.15-9.79,6.91-3.32-1.28-4.59-5-4.33-8.28q0-25.54,0-51.13c-.13-2.95.61-6.23,3.35-7.83Z" transform="translate(-9.91 -237.99)"/><path class="cls-2" d="M328.24,378v-5h-.82v-.81h.82v-.27a2.75,2.75,0,0,1,.67-2,2,2,0,0,1,1.41-.54,2.28,2.28,0,0,1,.9.17l-.14.81a1.62,1.62,0,0,0-.67-.13c-.9,0-1.13.79-1.13,1.68v.31h1.4V373h-1.4v5Z" transform="translate(-9.91 -237.99)"/><path class="cls-2" d="M331.63,374c0-.68,0-1.27,0-1.81h.92l0,1.14h0a1.75,1.75,0,0,1,1.61-1.27,1,1,0,0,1,.3,0v1a1.94,1.94,0,0,0-.36,0,1.47,1.47,0,0,0-1.41,1.35,2.46,2.46,0,0,0-.05.49V378h-1.05Z" transform="translate(-9.91 -237.99)"/><path class="cls-2" d="M336,375.29a1.85,1.85,0,0,0,2,2,3.75,3.75,0,0,0,1.6-.3l.18.76a4.63,4.63,0,0,1-1.93.36,2.7,2.7,0,0,1-2.85-2.93c0-1.75,1-3.13,2.72-3.13a2.46,2.46,0,0,1,2.4,2.74,2.81,2.81,0,0,1,0,.49Zm3.09-.76a1.5,1.5,0,0,0-1.46-1.71,1.74,1.74,0,0,0-1.62,1.71Z" transform="translate(-9.91 -237.99)"/><path class="cls-2" d="M342,375.29a1.85,1.85,0,0,0,2,2,3.83,3.83,0,0,0,1.61-.3l.18.76a4.72,4.72,0,0,1-1.94.36,2.7,2.7,0,0,1-2.85-2.93c0-1.75,1-3.13,2.72-3.13a2.46,2.46,0,0,1,2.4,2.74,4.88,4.88,0,0,1,0,.49Zm3.09-.76a1.5,1.5,0,0,0-1.46-1.71,1.74,1.74,0,0,0-1.62,1.71Z" transform="translate(-9.91 -237.99)"/><path class="cls-2" d="M347.46,369.48h1.06V378h-1.06Z" transform="translate(-9.91 -237.99)"/><path class="cls-2" d="M355.55,375.05a2.84,2.84,0,0,1-2.89,3.08,2.76,2.76,0,0,1-2.79-3,2.84,2.84,0,0,1,2.88-3.08A2.75,2.75,0,0,1,355.55,375.05Zm-4.61.06c0,1.27.73,2.23,1.76,2.23s1.77-.95,1.77-2.26c0-1-.49-2.23-1.74-2.23S350.94,374,350.94,375.11Z" transform="translate(-9.91 -237.99)"/><path class="cls-2" d="M361.88,372.19c0,.42-.05.89-.05,1.6v3.37a3.36,3.36,0,0,1-.82,2.65,3.07,3.07,0,0,1-2.11.69A3.64,3.64,0,0,1,357,380l.26-.8a3.25,3.25,0,0,0,1.7.46c1.08,0,1.87-.57,1.87-2V377h0a2.07,2.07,0,0,1-1.85,1,2.59,2.59,0,0,1-2.47-2.83,2.79,2.79,0,0,1,2.62-3.08,1.94,1.94,0,0,1,1.81,1h0l0-.88Zm-1.09,2.29a1.47,1.47,0,0,0-.06-.48,1.52,1.52,0,0,0-1.47-1.11c-1,0-1.73.85-1.73,2.19,0,1.14.57,2.09,1.71,2.09a1.55,1.55,0,0,0,1.47-1.08,1.81,1.81,0,0,0,.08-.56Z" transform="translate(-9.91 -237.99)"/><path class="cls-2" d="M368.84,375.05a2.84,2.84,0,0,1-2.89,3.08,2.76,2.76,0,0,1-2.78-3,2.83,2.83,0,0,1,2.88-3.08A2.74,2.74,0,0,1,368.84,375.05Zm-4.6.06c0,1.27.73,2.23,1.76,2.23s1.76-.95,1.76-2.26c0-1-.49-2.23-1.74-2.23S364.24,374,364.24,375.11Z" transform="translate(-9.91 -237.99)"/><path class="cls-2" d="M370.5,372.19l1.14,3.27a14.72,14.72,0,0,1,.47,1.48h0c.14-.48.3-1,.5-1.48l1.12-3.27h1.11L372.59,378h-1l-2.21-5.81Z" transform="translate(-9.91 -237.99)"/><path class="cls-2" d="M376.33,375.29a1.86,1.86,0,0,0,2,2,3.76,3.76,0,0,0,1.61-.3l.18.76a4.67,4.67,0,0,1-1.93.36,2.69,2.69,0,0,1-2.85-2.93c0-1.75,1-3.13,2.72-3.13a2.47,2.47,0,0,1,2.4,2.74,4.35,4.35,0,0,1,0,.49Zm3.1-.76a1.5,1.5,0,0,0-1.47-1.71,1.74,1.74,0,0,0-1.61,1.71Z" transform="translate(-9.91 -237.99)"/><path class="cls-2" d="M385.9,377.78a3.81,3.81,0,0,1-1.67.34,2.76,2.76,0,0,1-2.89-3,3,3,0,0,1,3.12-3.09,3.6,3.6,0,0,1,1.46.3l-.24.82a2.37,2.37,0,0,0-1.22-.28,2.19,2.19,0,0,0,0,4.37,3,3,0,0,0,1.3-.29Z" transform="translate(-9.91 -237.99)"/><path class="cls-2" d="M388.56,370.53v1.66h1.51V373h-1.51v3.13c0,.72.2,1.12.79,1.12a2.15,2.15,0,0,0,.61-.07l.05.79a2.42,2.42,0,0,1-.93.15,1.45,1.45,0,0,1-1.14-.45,2.13,2.13,0,0,1-.41-1.51V373h-.9v-.81h.9V370.8Z" transform="translate(-9.91 -237.99)"/><path class="cls-2" d="M396.44,375.05a2.84,2.84,0,0,1-2.89,3.08,2.76,2.76,0,0,1-2.78-3,2.83,2.83,0,0,1,2.88-3.08A2.75,2.75,0,0,1,396.44,375.05Zm-4.6.06c0,1.27.73,2.23,1.76,2.23s1.76-.95,1.76-2.26c0-1-.49-2.23-1.74-2.23S391.84,374,391.84,375.11Z" transform="translate(-9.91 -237.99)"/><path class="cls-2" d="M397.78,374c0-.68,0-1.27,0-1.81h.92l0,1.14h.05a1.74,1.74,0,0,1,1.6-1.27.91.91,0,0,1,.3,0v1a1.79,1.79,0,0,0-.36,0,1.47,1.47,0,0,0-1.41,1.35,2.46,2.46,0,0,0-.05.49V378h-1Z" transform="translate(-9.91 -237.99)"/><path class="cls-2" d="M401.56,376.92a2.79,2.79,0,0,0,1.39.42c.77,0,1.13-.39,1.13-.87s-.3-.78-1.08-1.06c-1.05-.37-1.54-1-1.54-1.65a1.79,1.79,0,0,1,2-1.7,2.91,2.91,0,0,1,1.43.36l-.26.77a2.22,2.22,0,0,0-1.19-.34c-.62,0-1,.36-1,.79s.35.7,1.1,1c1,.38,1.52.89,1.52,1.75,0,1-.79,1.74-2.17,1.74a3.33,3.33,0,0,1-1.63-.4Z" transform="translate(-9.91 -237.99)"/><path class="cls-2" d="M406.07,377.37a.71.71,0,0,1,.72-.75.76.76,0,0,1,0,1.51A.71.71,0,0,1,406.07,377.37Z" transform="translate(-9.91 -237.99)"/><path class="cls-2" d="M408.81,373.76c0-.6,0-1.09-.05-1.57h.93l.06,1h0a2.13,2.13,0,0,1,1.92-1.09c.8,0,2.05.48,2.05,2.47V378h-1.06v-3.35c0-.93-.35-1.71-1.34-1.71a1.5,1.5,0,0,0-1.42,1.08,1.45,1.45,0,0,0-.07.49V378h-1.05Z" transform="translate(-9.91 -237.99)"/><path class="cls-2" d="M416.05,375.29a1.86,1.86,0,0,0,2,2,3.8,3.8,0,0,0,1.61-.3l.18.76a4.67,4.67,0,0,1-1.93.36,2.7,2.7,0,0,1-2.86-2.93c0-1.75,1-3.13,2.73-3.13a2.47,2.47,0,0,1,2.4,2.74,4.35,4.35,0,0,1,0,.49Zm3.1-.76a1.5,1.5,0,0,0-1.47-1.71,1.76,1.76,0,0,0-1.62,1.71Z" transform="translate(-9.91 -237.99)"/><path class="cls-2" d="M422.75,370.53v1.66h1.51V373h-1.51v3.13c0,.72.2,1.12.79,1.12a2.15,2.15,0,0,0,.61-.07l.05.79a2.44,2.44,0,0,1-.94.15,1.44,1.44,0,0,1-1.13-.45,2.13,2.13,0,0,1-.41-1.51V373h-.9v-.81h.9V370.8Z" transform="translate(-9.91 -237.99)"/></svg>