<svg width="100" height="100" viewBox="0 0 100 100" fill="none" xmlns="http://www.w3.org/2000/svg">
<path d="M50.0834 88.5417C71.3646 88.5417 88.5417 71.2812 88.5417 49.9166C88.5417 28.6354 71.3646 11.4583 50.0834 11.4583M50.0834 88.5417C28.7188 88.5417 11.4584 71.2812 11.4584 49.9166C11.4584 28.6354 28.7188 11.4583 50.0834 11.4583M50.0834 88.5417V11.4583M83.4417 30.7291H16.5834M83.6563 68.8021H16.3688M11.6667 50H88.3334" stroke="#560029" stroke-width="2.08333" stroke-linecap="round" stroke-linejoin="round"/>
<path d="M50.0416 88.5417C60.6833 88.5417 69.2708 71.2812 69.2708 49.9166C69.2708 28.6354 60.6833 11.4583 50.0416 11.4583C39.3583 11.4583 30.7291 28.6354 30.7291 49.9166C30.7291 71.2812 39.3583 88.5417 50.0416 88.5417Z" stroke="#560029" stroke-width="2.08333" stroke-linecap="round" stroke-linejoin="round"/>
<path d="M54.1666 75V70.8333H60.4166V75H54.1666ZM61.25 86.5625L58.3333 83.5417L62.7083 79.1667L65.7291 82.0833L61.25 86.5625ZM62.7083 66.6667L58.3333 62.2917L61.25 59.2708L65.7291 63.75L62.7083 66.6667ZM87.5 91.6667L77.6041 81.7708L75 89.5833L68.75 68.75L89.5833 75L81.875 77.7083L91.6666 87.5L87.5 91.6667ZM70.8333 62.5V56.25H75V62.5H70.8333ZM83.125 66.6667L80.1041 63.75L84.5833 59.2708L87.5 62.1875L83.125 66.6667Z" fill="#560029"/>
</svg>
