<svg width="128" height="128" viewBox="0 0 128 128" fill="none" xmlns="http://www.w3.org/2000/svg">
<g clip-path="url(#clip0_409_4743)">
<path d="M64.0005 8.53336H68.2672C68.2672 7.74166 68.0469 6.96557 67.6309 6.29192C67.215 5.61828 66.6198 5.07365 65.912 4.71896L64.0005 8.53336ZM64.0005 17.0667L65.912 20.8811C66.6198 20.5264 67.215 19.9818 67.6309 19.3081C68.0469 18.6345 68.2672 17.8584 68.2672 17.0667H64.0005ZM55.4672 21.3334L53.5558 17.519C52.8881 17.8539 52.3202 18.3583 51.9086 18.9816C51.4971 19.605 51.2564 20.3254 51.2106 21.071C51.1648 21.8165 51.3155 22.561 51.6477 23.23C51.9799 23.899 52.4819 24.4691 53.1035 24.8832L55.4672 21.3334ZM68.2672 29.8667L65.9035 33.4166C66.6035 33.8833 67.4259 34.1327 68.2672 34.1334V29.8667ZM72.5339 29.8667V34.1334C73.6655 34.1334 74.7507 33.6838 75.5509 32.8837C76.351 32.0835 76.8006 30.9983 76.8006 29.8667H72.5339ZM72.5339 21.3334V17.0667C71.4023 17.0667 70.317 17.5162 69.5169 18.3164C68.7167 19.1165 68.2672 20.2018 68.2672 21.3334H72.5339ZM85.3339 21.3334H89.6006C89.6006 20.2018 89.151 19.1165 88.3509 18.3164C87.5507 17.5162 86.4655 17.0667 85.3339 17.0667V21.3334ZM85.3339 29.8667H81.0672C81.0662 30.4274 81.1757 30.9828 81.3895 31.5011C81.6033 32.0194 81.9171 32.4905 82.3131 32.8875L85.3339 29.8667ZM89.6006 34.1334H93.8672C93.8682 33.5727 93.7587 33.0173 93.5449 32.499C93.3312 31.9806 93.0173 31.5095 92.6214 31.1126L89.6006 34.1334ZM89.6006 42.6667L92.6214 45.6875C93.0173 45.2905 93.3312 44.8194 93.5449 44.3011C93.7587 43.7828 93.8682 43.2274 93.8672 42.6667H89.6006ZM85.3339 46.9334V51.2C85.8946 51.201 86.45 51.0915 86.9683 50.8777C87.4866 50.664 87.9577 50.3501 88.3547 49.9542L85.3339 46.9334ZM76.8006 46.9334L74.8891 50.7478C75.4824 51.0451 76.1369 51.2 76.8006 51.2V46.9334ZM59.7339 38.4L61.6454 34.5856C61.052 34.2883 60.3975 34.1335 59.7339 34.1335C59.0702 34.1335 58.4157 34.2883 57.8224 34.5856L59.7339 38.4ZM51.2006 42.6667V46.9334C51.8642 46.9333 52.5187 46.7785 53.112 46.4811L51.2006 42.6667ZM38.4006 42.6667V38.4C37.4488 38.4003 36.5245 38.7188 35.7746 39.3048C35.0247 39.8908 34.4922 40.7107 34.2619 41.6342L38.4006 42.6667ZM34.1339 59.7334L29.9952 58.7008C29.8157 59.4155 29.8243 60.1644 30.0202 60.8748C30.2161 61.5851 30.5926 62.2326 31.1131 62.7542L34.1339 59.7334ZM46.9339 72.5334L43.9131 75.5542C44.2379 75.8765 44.6125 76.1444 45.0224 76.3478L46.9339 72.5334ZM55.4672 76.8H59.7339C59.7339 76.0083 59.5136 75.2322 59.0976 74.5586C58.6817 73.8849 58.0865 73.3403 57.3787 72.9856L55.4672 76.8ZM55.4672 89.6H51.2006C51.1996 90.1607 51.3091 90.7161 51.5228 91.2344C51.7366 91.7528 52.0505 92.2239 52.4464 92.6208L55.4672 89.6ZM59.7339 93.8667H64.0005C64.0016 93.306 63.892 92.7506 63.6783 92.2323C63.4645 91.714 63.1507 91.2429 62.7547 90.8459L59.7339 93.8667ZM59.7339 102.4H55.4672C55.4673 103.064 55.6221 103.718 55.9195 104.312L59.7339 102.4ZM64.0005 110.933L60.1862 112.845C60.5408 113.553 61.0855 114.148 61.7591 114.564C62.4328 114.98 63.2088 115.2 64.0005 115.2V110.933ZM72.5339 110.933V115.2C73.2365 115.2 73.9282 115.026 74.5475 114.694C75.1668 114.362 75.6945 113.882 76.0838 113.297L72.5339 110.933ZM81.0672 98.1334L84.6171 100.497L84.8816 100.045L81.0672 98.1334ZM85.3339 89.6L89.1483 91.5115C89.4456 90.9182 89.6005 90.2637 89.6006 89.6H85.3339ZM85.3339 81.0667L81.9206 78.5067C81.3666 79.2452 81.0672 80.1435 81.0672 81.0667H85.3339ZM98.1339 64L101.547 66.56C102.023 65.9256 102.313 65.1712 102.383 64.3813C102.454 63.5915 102.304 62.7975 101.948 62.0886L98.1339 64ZM93.8672 55.4667V51.2C93.1396 51.2001 92.4241 51.3861 91.7887 51.7406C91.1533 52.0951 90.6191 52.6061 90.2369 53.2252C89.8547 53.8443 89.6371 54.5509 89.6049 55.2778C89.5727 56.0046 89.7269 56.7277 90.0528 57.3782L93.8672 55.4667ZM106.667 55.4667V59.7334C107.799 59.7334 108.884 59.2838 109.684 58.4837C110.484 57.6835 110.934 56.5983 110.934 55.4667H106.667ZM106.667 46.9334V42.6667C105.536 42.6667 104.45 43.1162 103.65 43.9164C102.85 44.7165 102.401 45.8018 102.401 46.9334H106.667ZM64.0005 119.467C49.2899 119.467 35.1817 113.623 24.7797 103.221C14.3777 92.8189 8.53388 78.7107 8.53388 64H0.000549316C0.000549316 80.9739 6.74339 97.2525 18.7457 109.255C30.748 121.257 47.0267 128 64.0005 128V119.467ZM119.467 64C119.467 71.284 118.033 78.4967 115.245 85.2262C112.458 91.9557 108.372 98.0703 103.221 103.221C98.0709 108.371 91.9563 112.457 85.2267 115.245C78.4972 118.032 71.2845 119.467 64.0005 119.467V128C80.9744 128 97.2531 121.257 109.255 109.255C121.258 97.2525 128.001 80.9739 128.001 64H119.467ZM64.0005 8.53336C71.2845 8.53336 78.4972 9.96805 85.2267 12.7555C91.9563 15.543 98.0709 19.6286 103.221 24.7792C108.372 29.9297 112.458 36.0443 115.245 42.7739C118.033 49.5034 119.467 56.716 119.467 64H128.001C128.001 47.0262 121.258 30.7475 109.255 18.7452C97.2531 6.74287 80.9744 3.05176e-05 64.0005 3.05176e-05V8.53336ZM64.0005 3.05176e-05C47.0267 3.05176e-05 30.748 6.74287 18.7457 18.7452C6.74339 30.7475 0.000549316 47.0262 0.000549316 64H8.53388C8.53388 49.2894 14.3777 35.1812 24.7797 24.7792C35.1817 14.3772 49.2899 8.53336 64.0005 8.53336V3.05176e-05ZM53.5558 8.0811L62.0891 12.3478L65.912 4.71896L57.3787 0.452297L53.5558 8.0811ZM59.7339 8.53336V17.0667H68.2672V8.53336H59.7339ZM62.0891 13.2523L53.5558 17.519L57.3787 25.1478L65.912 20.8811L62.0891 13.2523ZM53.1035 24.8832L65.9035 33.4166L70.631 26.3168L57.831 17.7835L53.1035 24.8832ZM68.2672 34.1334H72.5339V25.6H68.2672V34.1334ZM76.8006 29.8667V21.3334H68.2672V29.8667H76.8006ZM72.5339 25.6H85.3339V17.0667H72.5339V25.6ZM81.0672 21.3334V29.8667H89.6006V21.3334H81.0672ZM82.3131 32.8875L86.5798 37.1542L92.6214 31.1126L88.3547 26.8459L82.3131 32.8875ZM85.3339 34.1334V42.6667H93.8672V34.1334H85.3339ZM86.5798 39.6459L82.3131 43.9126L88.3547 49.9542L92.6214 45.6875L86.5798 39.6459ZM85.3339 42.6667H76.8006V51.2H85.3339V42.6667ZM78.712 43.119L61.6454 34.5856L57.8224 42.2144L74.8891 50.7478L78.712 43.119ZM57.8224 34.5856L49.2891 38.8523L53.112 46.4811L61.6454 42.2144L57.8224 34.5856ZM51.2006 38.4H38.4006V46.9334H51.2006V38.4ZM34.2619 41.6342L29.9952 58.7008L38.2726 60.7659L42.5392 43.6992L34.2619 41.6342ZM31.1131 62.7542L43.9131 75.5542L49.9547 69.5126L37.1547 56.7126L31.1131 62.7542ZM45.0224 76.3478L53.5558 80.6144L57.3787 72.9856L48.8454 68.719L45.0224 76.3478ZM51.2006 76.8V89.6H59.7339V76.8H51.2006ZM52.4464 92.6208L56.7131 96.8875L62.7547 90.8459L58.488 86.5792L52.4464 92.6208ZM55.4672 93.8667V102.4H64.0005V93.8667H55.4672ZM55.9195 104.312L60.1862 112.845L67.815 109.022L63.5483 100.489L55.9195 104.312ZM64.0005 115.2H72.5339V106.667H64.0005V115.2ZM76.0838 113.297L84.6171 100.497L77.5173 95.7696L68.984 108.57L76.0838 113.297ZM84.8816 100.045L89.1483 91.5115L81.5195 87.6886L77.2528 96.2219L84.8816 100.045ZM89.6006 89.6V81.0667H81.0672V89.6H89.6006ZM88.7472 83.6267L101.547 66.56L94.7206 61.44L81.9206 78.5067L88.7472 83.6267ZM101.948 62.0886L97.6816 53.5552L90.0528 57.3782L94.3195 65.9115L101.948 62.0886ZM93.8672 59.7334H106.667V51.2H93.8672V59.7334ZM110.934 55.4667V46.9334H102.401V55.4667H110.934ZM106.667 51.2H123.734V42.6667H106.667V51.2Z" fill="#252525"/>
</g>
<defs>
<clipPath id="clip0_409_4743">
<rect width="128" height="128" fill="white"/>
</clipPath>
</defs>
</svg>
